<mxfile host="65bd71144e">
    <diagram id="C5RBs43oDa-KdzZeNtuy" name="Page-1">
        <mxGraphModel dx="2990" dy="4531" grid="0" gridSize="10" guides="1" tooltips="1" connect="1" arrows="1" fold="1" page="1" pageScale="1" pageWidth="827" pageHeight="1169" math="0" shadow="0">
            <root>
                <mxCell id="WIyWlLk6GJQsqaUBKTNV-0"/>
                <mxCell id="WIyWlLk6GJQsqaUBKTNV-1" parent="WIyWlLk6GJQsqaUBKTNV-0"/>
                <mxCell id="x0zs3fpVoMOHUoJGgKyW-0" value="&lt;p style=&quot;margin: 0px ; margin-top: 4px ; text-align: center&quot;&gt;&lt;b&gt;&lt;span style=&quot;font-family:Helvetica&quot;&gt;Action&lt;/span&gt;&lt;/b&gt;&lt;br&gt;&lt;/p&gt;&lt;hr size=&quot;1&quot;&gt;&lt;p style=&quot;margin: 0px ; margin-left: 4px&quot;&gt;  &lt;span style=&quot;color:#b9e7ff&quot;&gt;id&lt;/span&gt;: &lt;span style=&quot;color:#00ffc4&quot;&gt;int&lt;/span&gt; &lt;br&gt;  &lt;span style=&quot;color:#b9e7ff&quot;&gt;created_at&lt;/span&gt;: &lt;span style=&quot;color:#00ffc4&quot;&gt;timestamp&lt;/span&gt; &lt;/p&gt;&lt;hr size=&quot;1&quot;&gt;&lt;p style=&quot;margin: 0px ; margin-left: 4px&quot;&gt; &lt;span style=&quot;color:#5ea6e8&quot;&gt;+&lt;/span&gt;  &lt;span style=&quot;color:#ff904d&quot;&gt;renderDetails&lt;/span&gt;(): &lt;span style=&quot;color:#00ffc4&quot;&gt;string&lt;/span&gt; &lt;/p&gt;" style="verticalAlign=top;align=left;overflow=fill;fontSize=12;fontFamily=Lucida Console;html=1;" parent="WIyWlLk6GJQsqaUBKTNV-1" vertex="1">
                    <mxGeometry x="450" y="-34" width="200" height="95" as="geometry"/>
                </mxCell>
                <mxCell id="x0zs3fpVoMOHUoJGgKyW-10" value="&lt;p style=&quot;margin: 0px ; margin-top: 4px ; text-align: center&quot;&gt;&lt;b&gt;&lt;span style=&quot;font-family:Helvetica&quot;&gt;Transaction&lt;/span&gt;&lt;/b&gt;&lt;/p&gt;&lt;hr size=&quot;1&quot;&gt;&lt;p style=&quot;margin: 0px ; margin-left: 4px&quot;&gt;  &lt;span style=&quot;color:#b9e7ff&quot;&gt;acc_src&lt;/span&gt;: &lt;span style=&quot;color:#c0ff00&quot;&gt;Account&lt;/span&gt;? &lt;br&gt;  &lt;span style=&quot;color:#b9e7ff&quot;&gt;acc_dst&lt;/span&gt;: &lt;span style=&quot;color:#c0ff00&quot;&gt;Account&lt;/span&gt;? &lt;br&gt;  &lt;span style=&quot;color:#b9e7ff&quot;&gt;card&lt;/span&gt;: &lt;span style=&quot;color:#c0ff00&quot;&gt;CreditCard&lt;/span&gt;? &lt;br&gt;&lt;/p&gt;&lt;p style=&quot;margin: 0px ; margin-left: 4px&quot;&gt;  &lt;span style=&quot;color:#b9e7ff&quot;&gt;iban_src&lt;/span&gt;: &lt;span style=&quot;color:#00ffc4&quot;&gt;string&lt;/span&gt; &lt;/p&gt;&lt;p style=&quot;margin: 0px ; margin-left: 4px&quot;&gt;  &lt;span style=&quot;color:#b9e7ff&quot;&gt;iban_dst&lt;/span&gt;: &lt;span style=&quot;color:#00ffc4&quot;&gt;string&lt;/span&gt; &lt;br&gt;&lt;/p&gt;&lt;p style=&quot;margin: 0px ; margin-left: 4px&quot;&gt;  &lt;span style=&quot;color:#b9e7ff&quot;&gt;amout&lt;/span&gt;: &lt;span style=&quot;color:#00ffc4&quot;&gt;double&lt;/span&gt; &lt;/p&gt;&lt;p style=&quot;margin: 0px ; margin-left: 4px&quot;&gt;  &lt;span style=&quot;color:#b9e7ff&quot;&gt;variable_symbol&lt;/span&gt;: &lt;span style=&quot;color:#00ffc4&quot;&gt;int&lt;/span&gt; &lt;/p&gt;&lt;p style=&quot;margin: 0px ; margin-left: 4px&quot;&gt;  &lt;span style=&quot;color:#b9e7ff&quot;&gt;constant_symbol&lt;/span&gt;: &lt;span style=&quot;color:#00ffc4&quot;&gt;int&lt;/span&gt; &lt;/p&gt;&lt;p style=&quot;margin: 0px ; margin-left: 4px&quot;&gt;  &lt;span style=&quot;color:#b9e7ff&quot;&gt;specific_symbol&lt;/span&gt;: &lt;span style=&quot;color:#00ffc4&quot;&gt;int&lt;/span&gt; &lt;/p&gt;&lt;hr size=&quot;1&quot;&gt;&lt;p style=&quot;margin: 0px ; margin-left: 4px&quot;&gt; &lt;span style=&quot;color:#5ea6e8&quot;&gt;+&lt;/span&gt;  &lt;span style=&quot;color:#ff904d&quot;&gt;renderDetails&lt;/span&gt;(): &lt;span style=&quot;color:#00ffc4&quot;&gt;string&lt;/span&gt; &lt;/p&gt;" style="verticalAlign=top;align=left;overflow=fill;fontSize=12;fontFamily=Lucida Console;html=1;" parent="WIyWlLk6GJQsqaUBKTNV-1" vertex="1">
                    <mxGeometry x="100" y="199.5" width="190" height="194" as="geometry"/>
                </mxCell>
                <mxCell id="x0zs3fpVoMOHUoJGgKyW-11" value="&lt;p style=&quot;margin: 0px ; margin-top: 4px ; text-align: center&quot;&gt;&lt;b&gt;&lt;span style=&quot;font-family:Helvetica&quot;&gt;SettingsChange&lt;/span&gt;&lt;/b&gt;&lt;br&gt;&lt;/p&gt;&lt;hr size=&quot;1&quot;&gt;&lt;p style=&quot;margin: 0px ; margin-left: 4px&quot;&gt;  &lt;span style=&quot;color:#b9e7ff&quot;&gt;name&lt;/span&gt;: &lt;span style=&quot;color:#00ffc4&quot;&gt;string&lt;/span&gt; &lt;/p&gt;&lt;p style=&quot;margin: 0px ; margin-left: 4px&quot;&gt;  &lt;span style=&quot;color:#b9e7ff&quot;&gt;old_val&lt;/span&gt;: &lt;span style=&quot;color:#00ffc4&quot;&gt;string&lt;/span&gt; &lt;/p&gt;&lt;p style=&quot;margin: 0px ; margin-left: 4px&quot;&gt;  &lt;span style=&quot;color:#b9e7ff&quot;&gt;new_val&lt;/span&gt;: &lt;span style=&quot;color:#00ffc4&quot;&gt;string&lt;/span&gt; &lt;br&gt;&lt;/p&gt;&lt;hr size=&quot;1&quot;&gt;&lt;p style=&quot;margin: 0px ; margin-left: 4px&quot;&gt; &lt;span style=&quot;color:#5ea6e8&quot;&gt;+&lt;/span&gt;  &lt;span style=&quot;color:#ff904d&quot;&gt;renderDetails&lt;/span&gt;(): &lt;span style=&quot;color:#00ffc4&quot;&gt;string&lt;/span&gt; &lt;/p&gt;" style="verticalAlign=top;align=left;overflow=fill;fontSize=12;fontFamily=Lucida Console;html=1;" parent="WIyWlLk6GJQsqaUBKTNV-1" vertex="1">
                    <mxGeometry x="330" y="199.5" width="200" height="110" as="geometry"/>
                </mxCell>
                <mxCell id="x0zs3fpVoMOHUoJGgKyW-12" value="&lt;p style=&quot;margin: 0px ; margin-top: 4px ; text-align: center&quot;&gt;&lt;b&gt;&lt;span style=&quot;font-family:Helvetica&quot;&gt;IBCreation&lt;/span&gt;&lt;/b&gt;&lt;br&gt;&lt;/p&gt;&lt;hr size=&quot;1&quot;&gt;&lt;p style=&quot;margin: 0px ; margin-left: 4px&quot;&gt;  &lt;span style=&quot;color:#b9e7ff&quot;&gt;ibanking&lt;/span&gt;: &lt;span style=&quot;color:#c0ff00&quot;&gt;IBUser&lt;/span&gt; &lt;/p&gt;&lt;p style=&quot;margin: 0px ; margin-left: 4px&quot;&gt;  &lt;span style=&quot;color:#b9e7ff&quot;&gt;def_passwd&lt;/span&gt;: &lt;span style=&quot;color:#00ffc4&quot;&gt;string&lt;/span&gt; &lt;/p&gt;&lt;hr size=&quot;1&quot;&gt;&lt;p style=&quot;margin: 0px ; margin-left: 4px&quot;&gt; &lt;span style=&quot;color:#5ea6e8&quot;&gt;+&lt;/span&gt;  &lt;span style=&quot;color:#ff904d&quot;&gt;renderDetails&lt;/span&gt;(): &lt;span style=&quot;color:#00ffc4&quot;&gt;string&lt;/span&gt; &lt;/p&gt;" style="verticalAlign=top;align=left;overflow=fill;fontSize=12;fontFamily=Lucida Console;html=1;" parent="WIyWlLk6GJQsqaUBKTNV-1" vertex="1">
                    <mxGeometry x="570" y="200" width="198" height="95" as="geometry"/>
                </mxCell>
                <mxCell id="x0zs3fpVoMOHUoJGgKyW-13" value="&lt;p style=&quot;margin: 0px ; margin-top: 4px ; text-align: center&quot;&gt;&lt;b&gt;&lt;span style=&quot;font-family:Helvetica&quot;&gt;IBUser&lt;/span&gt;&lt;/b&gt;&lt;br&gt;&lt;/p&gt;&lt;hr size=&quot;1&quot;&gt;&lt;p style=&quot;margin: 0px ; margin-left: 4px&quot;&gt;  &lt;span style=&quot;color:#b9e7ff&quot;&gt;password_hash&lt;/span&gt;: &lt;span style=&quot;color:#00ffc4&quot;&gt;string&lt;/span&gt; &lt;/p&gt;&lt;p style=&quot;margin: 0px ; margin-left: 4px&quot;&gt;  &lt;span style=&quot;color:#b9e7ff&quot;&gt;password_salt&lt;/span&gt;: &lt;span style=&quot;color:#00ffc4&quot;&gt;string&lt;/span&gt; &lt;/p&gt;&lt;p style=&quot;margin: 0px ; margin-left: 4px&quot;&gt;  &lt;span style=&quot;color:#b9e7ff&quot;&gt;enc_priv_key&lt;/span&gt;: &lt;span style=&quot;color:#00ffc4&quot;&gt;string&lt;/span&gt; &lt;/p&gt;&lt;p style=&quot;margin: 0px ; margin-left: 4px&quot;&gt;  &lt;span style=&quot;color:#b9e7ff&quot;&gt;pk_pass_salt&lt;/span&gt;: &lt;span style=&quot;color:#00ffc4&quot;&gt;string&lt;/span&gt; &lt;/p&gt;&lt;p style=&quot;margin: 0px ; margin-left: 4px&quot;&gt;  &lt;span style=&quot;color:#b9e7ff&quot;&gt;public_key&lt;/span&gt;: &lt;span style=&quot;color:#00ffc4&quot;&gt;string&lt;/span&gt; &lt;br&gt;  &lt;span style=&quot;color:#b9e7ff&quot;&gt;session_id&lt;/span&gt;: &lt;span style=&quot;color:#00ffc4&quot;&gt;id&lt;/span&gt; &lt;/p&gt;&lt;p style=&quot;margin: 0px ; margin-left: 4px&quot;&gt;  &lt;span style=&quot;color:#b9e7ff&quot;&gt;last_session&lt;/span&gt;: &lt;span style=&quot;color:#00ffc4&quot;&gt;timestamp&lt;/span&gt; &lt;/p&gt;&lt;hr size=&quot;1&quot;&gt;&lt;p style=&quot;margin: 0px ; margin-left: 4px&quot;&gt; &lt;span style=&quot;color:#5ea6e8&quot;&gt;+&lt;/span&gt;  &lt;span style=&quot;color:#ff904d&quot;&gt;renderDetails&lt;/span&gt;(): &lt;span style=&quot;color:#00ffc4&quot;&gt;string&lt;/span&gt; &lt;/p&gt;" style="verticalAlign=top;align=left;overflow=fill;fontSize=12;fontFamily=Lucida Console;html=1;" parent="WIyWlLk6GJQsqaUBKTNV-1" vertex="1">
                    <mxGeometry x="960" y="-618" width="190" height="165" as="geometry"/>
                </mxCell>
                <mxCell id="54" style="edgeStyle=orthogonalEdgeStyle;rounded=1;html=1;exitX=0.5;exitY=1;exitDx=0;exitDy=0;entryX=0.5;entryY=0;entryDx=0;entryDy=0;dashed=1;fontFamily=Helvetica;startArrow=none;startFill=0;endArrow=classic;endFill=1;" parent="WIyWlLk6GJQsqaUBKTNV-1" source="x0zs3fpVoMOHUoJGgKyW-14" target="x0zs3fpVoMOHUoJGgKyW-30" edge="1">
                    <mxGeometry relative="1" as="geometry"/>
                </mxCell>
                <mxCell id="55" value="&amp;lt;&amp;lt;instantiate&amp;gt;&amp;gt;" style="edgeLabel;html=1;align=center;verticalAlign=middle;resizable=0;points=[];fontFamily=Helvetica;" parent="54" vertex="1" connectable="0">
                    <mxGeometry x="-0.3634" y="-2" relative="1" as="geometry">
                        <mxPoint x="2" y="16" as="offset"/>
                    </mxGeometry>
                </mxCell>
                <mxCell id="x0zs3fpVoMOHUoJGgKyW-14" value="&lt;p style=&quot;margin: 0px ; margin-top: 4px ; text-align: center&quot;&gt;&lt;b&gt;&lt;span style=&quot;font-family: &amp;#34;helvetica&amp;#34;&quot;&gt;CardOrder&lt;/span&gt;&lt;/b&gt;&lt;/p&gt;&lt;hr size=&quot;1&quot;&gt;&lt;p style=&quot;margin: 0px ; margin-left: 4px&quot;&gt;  &lt;span style=&quot;color:#b9e7ff&quot;&gt;owner&lt;/span&gt;: &lt;span style=&quot;color:#c0ff00&quot;&gt;User&lt;/span&gt; &lt;br&gt;  &lt;span style=&quot;color:#b9e7ff&quot;&gt;shipping_addr&lt;/span&gt;: &lt;span style=&quot;color:#c0ff00&quot;&gt;Address&lt;/span&gt; &lt;/p&gt;&lt;p style=&quot;margin: 0px ; margin-left: 4px&quot;&gt;  &lt;span style=&quot;color:#b9e7ff&quot;&gt;color&lt;/span&gt;: &lt;span style=&quot;color:#00ffc4&quot;&gt;int&lt;/span&gt; &lt;br&gt;&lt;/p&gt;&lt;hr size=&quot;1&quot;&gt;&lt;p style=&quot;margin: 0px ; margin-left: 4px&quot;&gt; &lt;span style=&quot;color:#5ea6e8&quot;&gt;+&lt;/span&gt;  &lt;span style=&quot;color:#ff904d&quot;&gt;renderDetails&lt;/span&gt;(): &lt;span style=&quot;color:#00ffc4&quot;&gt;string&lt;/span&gt; &lt;/p&gt;" style="verticalAlign=top;align=left;overflow=fill;fontSize=12;fontFamily=Lucida Console;html=1;" parent="WIyWlLk6GJQsqaUBKTNV-1" vertex="1">
                    <mxGeometry x="810" y="200" width="190" height="110" as="geometry"/>
                </mxCell>
                <mxCell id="x0zs3fpVoMOHUoJGgKyW-17" value="&lt;font face=&quot;Helvetica&quot;&gt;&amp;lt;&amp;lt;extends&amp;gt;&amp;gt;&lt;/font&gt;" style="endArrow=block;endSize=16;endFill=0;html=1;rounded=1;entryX=0.5;entryY=1;entryDx=0;entryDy=0;exitX=0.5;exitY=0;exitDx=0;exitDy=0;fontFamily=Lucida Console;" parent="WIyWlLk6GJQsqaUBKTNV-1" source="x0zs3fpVoMOHUoJGgKyW-10" target="x0zs3fpVoMOHUoJGgKyW-0" edge="1">
                    <mxGeometry width="160" relative="1" as="geometry">
                        <mxPoint x="290" y="50" as="sourcePoint"/>
                        <mxPoint x="450" y="50" as="targetPoint"/>
                        <Array as="points">
                            <mxPoint x="195" y="120"/>
                            <mxPoint x="550" y="120"/>
                        </Array>
                    </mxGeometry>
                </mxCell>
                <mxCell id="x0zs3fpVoMOHUoJGgKyW-18" value="&lt;font face=&quot;Helvetica&quot;&gt;&amp;lt;&amp;lt;extends&amp;gt;&amp;gt;&lt;/font&gt;" style="endArrow=block;endSize=16;endFill=0;html=1;rounded=1;exitX=0.5;exitY=0;exitDx=0;exitDy=0;entryX=0.5;entryY=1;entryDx=0;entryDy=0;fontFamily=Lucida Console;" parent="WIyWlLk6GJQsqaUBKTNV-1" source="x0zs3fpVoMOHUoJGgKyW-11" target="x0zs3fpVoMOHUoJGgKyW-0" edge="1">
                    <mxGeometry width="160" relative="1" as="geometry">
                        <mxPoint x="390" y="100" as="sourcePoint"/>
                        <mxPoint x="530" as="targetPoint"/>
                        <Array as="points">
                            <mxPoint x="430" y="120"/>
                            <mxPoint x="550" y="120"/>
                        </Array>
                    </mxGeometry>
                </mxCell>
                <mxCell id="x0zs3fpVoMOHUoJGgKyW-21" value="&lt;font face=&quot;Helvetica&quot;&gt;&amp;lt;&amp;lt;extends&amp;gt;&amp;gt;&lt;/font&gt;" style="endArrow=block;endSize=16;endFill=0;html=1;rounded=1;exitX=0.5;exitY=0;exitDx=0;exitDy=0;entryX=0.5;entryY=1;entryDx=0;entryDy=0;fontFamily=Lucida Console;" parent="WIyWlLk6GJQsqaUBKTNV-1" source="x0zs3fpVoMOHUoJGgKyW-14" target="x0zs3fpVoMOHUoJGgKyW-0" edge="1">
                    <mxGeometry width="160" relative="1" as="geometry">
                        <mxPoint x="920" y="160" as="sourcePoint"/>
                        <mxPoint x="870" y="150" as="targetPoint"/>
                        <Array as="points">
                            <mxPoint x="905" y="120"/>
                            <mxPoint x="550" y="120"/>
                        </Array>
                    </mxGeometry>
                </mxCell>
                <mxCell id="x0zs3fpVoMOHUoJGgKyW-27" value="&lt;p style=&quot;margin: 0px ; margin-top: 4px ; text-align: center&quot;&gt;&lt;b&gt;&lt;span style=&quot;font-family:Helvetica&quot;&gt;Service&lt;/span&gt;&lt;/b&gt;&lt;br&gt;&lt;/p&gt;&lt;hr size=&quot;1&quot;&gt;&lt;p style=&quot;margin: 0px ; margin-left: 4px&quot;&gt;  &lt;span style=&quot;color:#b9e7ff&quot;&gt;id&lt;/span&gt;: &lt;span style=&quot;color:#00ffc4&quot;&gt;int&lt;/span&gt; &lt;br&gt;&lt;/p&gt;&lt;p style=&quot;margin: 0px ; margin-left: 4px&quot;&gt;  &lt;span style=&quot;color:#b9e7ff&quot;&gt;name&lt;/span&gt;: &lt;span style=&quot;color:#00ffc4&quot;&gt;string&lt;/span&gt; &lt;/p&gt;&lt;p style=&quot;margin: 0px ; margin-left: 4px&quot;&gt;  &lt;span style=&quot;color:#b9e7ff&quot;&gt;desc&lt;/span&gt;: &lt;span style=&quot;color:#00ffc4&quot;&gt;string&lt;/span&gt; &lt;/p&gt;&lt;p style=&quot;margin: 0px ; margin-left: 4px&quot;&gt;  &lt;span style=&quot;color:#b9e7ff&quot;&gt;created_at&lt;/span&gt;: &lt;span style=&quot;color:#00ffc4&quot;&gt;timestamp&lt;/span&gt; &lt;br&gt;&lt;/p&gt;&lt;hr size=&quot;1&quot;&gt;&lt;p style=&quot;margin: 0px ; margin-left: 4px&quot;&gt; &lt;span style=&quot;color:#5ea6e8&quot;&gt;+&lt;/span&gt;  &lt;span style=&quot;color:#ff904d&quot;&gt;renderDetails&lt;/span&gt;(): &lt;span style=&quot;color:#00ffc4&quot;&gt;string&lt;/span&gt; &lt;/p&gt;" style="verticalAlign=top;align=left;overflow=fill;fontSize=12;fontFamily=Lucida Console;html=1;" parent="WIyWlLk6GJQsqaUBKTNV-1" vertex="1">
                    <mxGeometry x="1170.25" y="103" width="194.75" height="124" as="geometry"/>
                </mxCell>
                <mxCell id="7" style="edgeStyle=elbowEdgeStyle;elbow=vertical;html=1;exitX=0.75;exitY=1;exitDx=0;exitDy=0;entryX=0.114;entryY=0.003;entryDx=0;entryDy=0;dashed=1;startArrow=classic;startFill=1;endArrow=none;endFill=0;entryPerimeter=0;" parent="WIyWlLk6GJQsqaUBKTNV-1" source="x0zs3fpVoMOHUoJGgKyW-28" target="1" edge="1">
                    <mxGeometry relative="1" as="geometry"/>
                </mxCell>
                <mxCell id="8" value="&amp;lt;&amp;lt;instantiate&amp;gt;&amp;gt;" style="edgeLabel;html=1;align=center;verticalAlign=middle;resizable=0;points=[];" parent="7" vertex="1" connectable="0">
                    <mxGeometry x="-0.1935" y="2" relative="1" as="geometry">
                        <mxPoint x="28" y="1" as="offset"/>
                    </mxGeometry>
                </mxCell>
                <mxCell id="x0zs3fpVoMOHUoJGgKyW-28" value="&lt;p style=&quot;margin: 0px ; margin-top: 4px ; text-align: center&quot;&gt;&lt;b&gt;&lt;span style=&quot;font-family: &amp;#34;helvetica&amp;#34;&quot;&gt;Account&lt;/span&gt;&lt;/b&gt;&lt;br&gt;&lt;/p&gt;&lt;hr size=&quot;1&quot;&gt;&lt;p style=&quot;margin: 0px ; margin-left: 4px&quot;&gt;  &lt;span style=&quot;color:#b9e7ff&quot;&gt;id&lt;/span&gt;: &lt;span style=&quot;color:#00ffc4&quot;&gt;int&lt;/span&gt; &lt;br&gt;&lt;/p&gt;&lt;p style=&quot;margin: 0px ; margin-left: 4px&quot;&gt;  &lt;span style=&quot;color:#b9e7ff&quot;&gt;owner&lt;/span&gt;: &lt;span style=&quot;color:#c0ff00&quot;&gt;User&lt;/span&gt; &lt;br&gt;&lt;/p&gt;&lt;p style=&quot;margin: 0px ; margin-left: 4px&quot;&gt;  &lt;span style=&quot;color:#b9e7ff&quot;&gt;iban&lt;/span&gt;: &lt;span style=&quot;color:#00ffc4&quot;&gt;string&lt;/span&gt; &lt;/p&gt;&lt;p style=&quot;margin: 0px ; margin-left: 4px&quot;&gt;  &lt;span style=&quot;color:#b9e7ff&quot;&gt;type&lt;/span&gt;: &lt;span style=&quot;color:#c0ff00&quot;&gt;AccountType&lt;/span&gt; &lt;/p&gt;&lt;p style=&quot;margin: 0px ; margin-left: 4px&quot;&gt;  &lt;span style=&quot;color:#b9e7ff&quot;&gt;active&lt;/span&gt;: &lt;span style=&quot;color:#00ffc4&quot;&gt;boolean&lt;/span&gt; &lt;br&gt;&lt;/p&gt;&lt;p style=&quot;margin: 0px ; margin-left: 4px&quot;&gt;  &lt;span style=&quot;color:#b9e7ff&quot;&gt;created_at&lt;/span&gt;: &lt;span style=&quot;color:#00ffc4&quot;&gt;timestamp&lt;/span&gt; &lt;br&gt;&lt;/p&gt;&lt;hr size=&quot;1&quot;&gt;&lt;p style=&quot;margin: 0px ; margin-left: 4px&quot;&gt; &lt;span style=&quot;color:#5ea6e8&quot;&gt;+&lt;/span&gt;  &lt;span style=&quot;color:#ff904d&quot;&gt;renderDetails&lt;/span&gt;(): &lt;span style=&quot;color:#00ffc4&quot;&gt;string&lt;/span&gt; &lt;/p&gt;&lt;p style=&quot;margin: 0px ; margin-left: 4px&quot;&gt; &lt;span style=&quot;color:#5ea6e8&quot;&gt;+&lt;/span&gt;  &lt;span style=&quot;color:#ff904d&quot;&gt;getActiveServices&lt;/span&gt;(): &lt;span style=&quot;color:#c0ff00&quot;&gt;List&lt;/span&gt;&amp;lt;&lt;span style=&quot;color:#c0ff00&quot;&gt;Service&lt;/span&gt;&amp;gt; &lt;br&gt; &lt;span style=&quot;color:#5ea6e8&quot;&gt;+&lt;/span&gt;  &lt;span style=&quot;color:#ff904d&quot;&gt;getCreditCards&lt;/span&gt;(): &lt;span style=&quot;color:#c0ff00&quot;&gt;List&lt;/span&gt;&amp;lt;&lt;span style=&quot;color:#c0ff00&quot;&gt;CreditCard&lt;/span&gt;&amp;gt; &lt;br&gt; &lt;span style=&quot;color:#5ea6e8&quot;&gt;+&lt;/span&gt;  &lt;span style=&quot;color:#ff904d&quot;&gt;getDispositions&lt;/span&gt;(): &lt;span style=&quot;color:#c0ff00&quot;&gt;List&lt;/span&gt;&amp;lt;&lt;span style=&quot;color:#c0ff00&quot;&gt;Disposition&lt;/span&gt;&amp;gt; &lt;br&gt; &lt;span style=&quot;color:#5ea6e8&quot;&gt;+&lt;/span&gt; &amp;lt;&lt;span style=&quot;color:#c0ff00&quot;&gt;T&lt;/span&gt; &lt;span style=&quot;color:#00ffc4&quot;&gt;extends&lt;/span&gt; &lt;span style=&quot;color:#c0ff00&quot;&gt;Action&lt;/span&gt;&amp;gt; &lt;span style=&quot;color:#ff904d&quot;&gt;getOperations&lt;/span&gt;(): &lt;span style=&quot;color:#c0ff00&quot;&gt;List&lt;/span&gt;&amp;lt;&lt;span style=&quot;color:#c0ff00&quot;&gt;Operation&lt;/span&gt;&amp;lt;&lt;span style=&quot;color:#c0ff00&quot;&gt;T&lt;/span&gt;&amp;gt;&amp;gt; &lt;/span&gt;&lt;/p&gt;&lt;p style=&quot;margin: 0px ; margin-left: 4px&quot;&gt;&lt;span&gt; &lt;span style=&quot;color:#5ea6e8&quot;&gt;+&lt;/span&gt;  &lt;span style=&quot;color:#ff904d&quot;&gt;addDisponent&lt;/span&gt;(&lt;span style=&quot;color:#b9e7ff&quot;&gt;disponent&lt;/span&gt;: &lt;span style=&quot;color:#c0ff00&quot;&gt;User&lt;/span&gt;): &lt;span style=&quot;color:#c0ff00&quot;&gt;Disposition&lt;/span&gt; &lt;/span&gt;&lt;/p&gt;&lt;p style=&quot;margin: 0px ; margin-left: 4px&quot;&gt;&lt;span&gt; &lt;span style=&quot;color:#5ea6e8&quot;&gt;+&lt;/span&gt;  &lt;span style=&quot;color:#ff904d&quot;&gt;setServiceState&lt;/span&gt;(&lt;span style=&quot;color:#b9e7ff&quot;&gt;service&lt;/span&gt;: &lt;span style=&quot;color:#c0ff00&quot;&gt;Service&lt;/span&gt;&lt;span style=&quot;color:#ffffff&quot;&gt;,&lt;/span&gt; &lt;span style=&quot;color:#b9e7ff&quot;&gt; state&lt;/span&gt;: &lt;span style=&quot;color:#00ffc4&quot;&gt;boolean&lt;/span&gt;): &lt;span style=&quot;color:#00ffc4&quot;&gt;boolean&lt;/span&gt; &lt;/span&gt;&lt;/p&gt;&lt;p style=&quot;margin: 0px ; margin-left: 4px&quot;&gt;&lt;span&gt; &lt;span style=&quot;color:#5ea6e8&quot;&gt;+&lt;/span&gt;  &lt;span style=&quot;color:#ff904d&quot;&gt;createOperation&lt;/span&gt;(&lt;span style=&quot;color:#b9e7ff&quot;&gt;operation&lt;/span&gt;: &lt;span style=&quot;color:#c0ff00&quot;&gt;Operation&lt;/span&gt;): &lt;span style=&quot;color:#00ffc4&quot;&gt;boolean&lt;/span&gt; &lt;/span&gt;&lt;/p&gt;&lt;p style=&quot;margin: 0px ; margin-left: 4px&quot;&gt;&lt;span&gt; &lt;span style=&quot;color:#5ea6e8&quot;&gt;+&lt;/span&gt;  &lt;span style=&quot;color:#ff904d&quot;&gt;getOperations&lt;/span&gt;(): &lt;span style=&quot;color:#c0ff00&quot;&gt;List&lt;/span&gt;&amp;lt;&lt;span style=&quot;color:#c0ff00&quot;&gt;Operation&lt;/span&gt;&amp;gt; &lt;/span&gt;&lt;/p&gt;&lt;p style=&quot;margin: 0px ; margin-left: 4px&quot;&gt;&lt;span&gt; &lt;span style=&quot;color:#5ea6e8&quot;&gt;+&lt;/span&gt;  &lt;span style=&quot;color:#ff904d&quot;&gt;delete&lt;/span&gt;(): &lt;span style=&quot;color:#00ffc4&quot;&gt;boolean&lt;/span&gt; &lt;/span&gt;&lt;/p&gt;" style="verticalAlign=top;align=left;overflow=fill;fontSize=12;fontFamily=Lucida Console;html=1;" parent="WIyWlLk6GJQsqaUBKTNV-1" vertex="1">
                    <mxGeometry x="190" y="-1060" width="450" height="280" as="geometry"/>
                </mxCell>
                <mxCell id="10" style="edgeStyle=elbowEdgeStyle;elbow=vertical;html=1;exitX=0.25;exitY=1;exitDx=0;exitDy=0;entryX=0.347;entryY=-0.032;entryDx=0;entryDy=0;entryPerimeter=0;dashed=1;startArrow=classic;startFill=1;endArrow=none;endFill=0;" parent="WIyWlLk6GJQsqaUBKTNV-1" source="x0zs3fpVoMOHUoJGgKyW-29" target="1" edge="1">
                    <mxGeometry relative="1" as="geometry">
                        <Array as="points">
                            <mxPoint x="750" y="-788.5"/>
                        </Array>
                    </mxGeometry>
                </mxCell>
                <mxCell id="11" value="&amp;lt;&amp;lt;instantiate&amp;gt;&amp;gt;" style="edgeLabel;html=1;align=center;verticalAlign=middle;resizable=0;points=[];" parent="10" vertex="1" connectable="0">
                    <mxGeometry x="-0.3193" y="-1" relative="1" as="geometry">
                        <mxPoint x="8" as="offset"/>
                    </mxGeometry>
                </mxCell>
                <mxCell id="30" style="edgeStyle=orthogonalEdgeStyle;rounded=1;html=1;exitX=0;exitY=0.75;exitDx=0;exitDy=0;entryX=0.228;entryY=-0.009;entryDx=0;entryDy=0;entryPerimeter=0;dashed=1;fontFamily=Helvetica;startArrow=classic;startFill=1;endArrow=none;endFill=0;" parent="WIyWlLk6GJQsqaUBKTNV-1" source="x0zs3fpVoMOHUoJGgKyW-29" target="1" edge="1">
                    <mxGeometry relative="1" as="geometry">
                        <Array as="points">
                            <mxPoint x="673" y="-878"/>
                        </Array>
                    </mxGeometry>
                </mxCell>
                <mxCell id="31" value="&amp;lt;&amp;lt;uses&amp;gt;&amp;gt;" style="edgeLabel;html=1;align=center;verticalAlign=middle;resizable=0;points=[];fontFamily=Helvetica;" parent="30" vertex="1" connectable="0">
                    <mxGeometry x="0.1089" relative="1" as="geometry">
                        <mxPoint as="offset"/>
                    </mxGeometry>
                </mxCell>
                <mxCell id="x0zs3fpVoMOHUoJGgKyW-29" value="&lt;p style=&quot;margin: 0px ; margin-top: 4px ; text-align: center&quot;&gt;&lt;b&gt;&lt;span style=&quot;font-family:Helvetica&quot;&gt;User&lt;/span&gt;&lt;/b&gt;&lt;br&gt;&lt;/p&gt;&lt;hr size=&quot;1&quot;&gt;&lt;p style=&quot;margin: 0px ; margin-left: 4px&quot;&gt;  &lt;span style=&quot;color:#b9e7ff&quot;&gt;id&lt;/span&gt;: &lt;span style=&quot;color:#00ffc4&quot;&gt;int&lt;/span&gt; &lt;/p&gt;&lt;p style=&quot;margin: 0px ; margin-left: 4px&quot;&gt;  &lt;span style=&quot;color:#b9e7ff&quot;&gt;address&lt;/span&gt;: &lt;span style=&quot;color:#c0ff00&quot;&gt;Address&lt;/span&gt; &lt;/p&gt;&lt;p style=&quot;margin: 0px ; margin-left: 4px&quot;&gt;  &lt;span style=&quot;color:#b9e7ff&quot;&gt;firstname&lt;/span&gt;: &lt;span style=&quot;color:#00ffc4&quot;&gt;string&lt;/span&gt; &lt;br&gt;&lt;/p&gt;&lt;p style=&quot;margin: 0px ; margin-left: 4px&quot;&gt;  &lt;span style=&quot;color:#b9e7ff&quot;&gt;midname&lt;/span&gt;: &lt;span style=&quot;color:#00ffc4&quot;&gt;string&lt;/span&gt; &lt;/p&gt;&lt;p style=&quot;margin: 0px ; margin-left: 4px&quot;&gt;  &lt;span style=&quot;color:#b9e7ff&quot;&gt;lastname&lt;/span&gt;: &lt;span style=&quot;color:#00ffc4&quot;&gt;string&lt;/span&gt; &lt;/p&gt;&lt;p style=&quot;margin: 0px ; margin-left: 4px&quot;&gt;  &lt;span style=&quot;color:#b9e7ff&quot;&gt;mobile&lt;/span&gt;: &lt;span style=&quot;color:#00ffc4&quot;&gt;string&lt;/span&gt; &lt;/p&gt;&lt;p style=&quot;margin: 0px ; margin-left: 4px&quot;&gt;  &lt;span style=&quot;color:#b9e7ff&quot;&gt;role&lt;/span&gt;: &lt;span style=&quot;color:#c0ff00&quot;&gt;UserRole&lt;/span&gt; &lt;/p&gt;&lt;p style=&quot;margin: 0px ; margin-left: 4px&quot;&gt;  &lt;span style=&quot;color:#b9e7ff&quot;&gt;created_at&lt;/span&gt;: &lt;span style=&quot;color:#00ffc4&quot;&gt;timestamp&lt;/span&gt; &lt;br&gt;&lt;/p&gt;&lt;hr size=&quot;1&quot;&gt;&lt;p style=&quot;margin: 0px ; margin-left: 4px&quot;&gt; &lt;span style=&quot;color:#5ea6e8&quot;&gt;+&lt;/span&gt;  &lt;span style=&quot;color:#ff904d&quot;&gt;renderDetails&lt;/span&gt;(): &lt;span style=&quot;color:#00ffc4&quot;&gt;string&lt;/span&gt; &lt;br&gt; &lt;span style=&quot;color:#5ea6e8&quot;&gt;+&lt;/span&gt;  &lt;span style=&quot;color:#ff904d&quot;&gt;getAccounts&lt;/span&gt;(): &lt;span style=&quot;color:#c0ff00&quot;&gt;List&lt;/span&gt;&amp;lt;&lt;span style=&quot;color:#c0ff00&quot;&gt;Account&lt;/span&gt;&amp;gt; &lt;br&gt; &lt;span style=&quot;color:#5ea6e8&quot;&gt;+&lt;/span&gt;  &lt;span style=&quot;color:#ff904d&quot;&gt;getDispositions&lt;/span&gt;(): &lt;span style=&quot;color:#c0ff00&quot;&gt;List&lt;/span&gt;&amp;lt;&lt;span style=&quot;color:#c0ff00&quot;&gt;Disposition&lt;/span&gt;&amp;gt; &lt;/p&gt;&lt;p style=&quot;margin: 0px ; margin-left: 4px&quot;&gt; &lt;span style=&quot;color:#5ea6e8&quot;&gt;+&lt;/span&gt;  &lt;span style=&quot;color:#ff904d&quot;&gt;delete&lt;/span&gt;(): &lt;span style=&quot;color:#00ffc4&quot;&gt;boolean&lt;/span&gt; &lt;/p&gt;" style="verticalAlign=top;align=left;overflow=fill;fontSize=12;fontFamily=Lucida Console;html=1;" parent="WIyWlLk6GJQsqaUBKTNV-1" vertex="1">
                    <mxGeometry x="762" y="-1046" width="300" height="224" as="geometry"/>
                </mxCell>
                <mxCell id="56" style="edgeStyle=orthogonalEdgeStyle;rounded=1;html=1;exitX=0;exitY=0.25;exitDx=0;exitDy=0;entryX=0;entryY=0.25;entryDx=0;entryDy=0;dashed=1;fontFamily=Helvetica;startArrow=none;startFill=0;endArrow=classic;endFill=1;" parent="WIyWlLk6GJQsqaUBKTNV-1" source="x0zs3fpVoMOHUoJGgKyW-30" target="x0zs3fpVoMOHUoJGgKyW-28" edge="1">
                    <mxGeometry relative="1" as="geometry">
                        <Array as="points">
                            <mxPoint x="67" y="463"/>
                            <mxPoint x="67" y="-990"/>
                        </Array>
                    </mxGeometry>
                </mxCell>
                <mxCell id="57" value="&amp;lt;&amp;lt;uses&amp;gt;&amp;gt;" style="edgeLabel;html=1;align=center;verticalAlign=middle;resizable=0;points=[];fontFamily=Helvetica;" parent="56" vertex="1" connectable="0">
                    <mxGeometry x="-0.84" y="6" relative="1" as="geometry">
                        <mxPoint x="77" y="-6" as="offset"/>
                    </mxGeometry>
                </mxCell>
                <mxCell id="58" style="edgeStyle=orthogonalEdgeStyle;rounded=1;html=1;entryX=1;entryY=0.25;entryDx=0;entryDy=0;dashed=1;fontFamily=Helvetica;startArrow=none;startFill=0;endArrow=classic;endFill=1;" parent="WIyWlLk6GJQsqaUBKTNV-1" target="x0zs3fpVoMOHUoJGgKyW-29" edge="1">
                    <mxGeometry relative="1" as="geometry">
                        <Array as="points">
                            <mxPoint x="1464" y="522"/>
                            <mxPoint x="1464" y="-990"/>
                        </Array>
                        <mxPoint x="1004" y="522" as="sourcePoint"/>
                    </mxGeometry>
                </mxCell>
                <mxCell id="59" value="&amp;lt;&amp;lt;uses&amp;gt;&amp;gt;" style="edgeLabel;html=1;align=center;verticalAlign=middle;resizable=0;points=[];fontFamily=Helvetica;" parent="58" vertex="1" connectable="0">
                    <mxGeometry x="-0.9333" relative="1" as="geometry">
                        <mxPoint x="37" y="1" as="offset"/>
                    </mxGeometry>
                </mxCell>
                <mxCell id="x0zs3fpVoMOHUoJGgKyW-30" value="&lt;p style=&quot;margin: 0px ; margin-top: 4px ; text-align: center&quot;&gt;&lt;b&gt;&lt;span style=&quot;font-family:Helvetica&quot;&gt;CreditCard&lt;/span&gt;&lt;/b&gt;&lt;br&gt;&lt;/p&gt;&lt;hr size=&quot;1&quot;&gt;&lt;p style=&quot;margin: 0px ; margin-left: 4px&quot;&gt;  &lt;span style=&quot;color:#b9e7ff&quot;&gt;id&lt;/span&gt;: &lt;span style=&quot;color:#00ffc4&quot;&gt;int&lt;/span&gt; &lt;br&gt;&lt;/p&gt;&lt;p style=&quot;margin: 0px ; margin-left: 4px&quot;&gt;  &lt;span style=&quot;color:#b9e7ff&quot;&gt;account&lt;/span&gt;: &lt;span style=&quot;color:#c0ff00&quot;&gt;Account&lt;/span&gt; &lt;br&gt;&lt;/p&gt;&lt;p style=&quot;margin: 0px ; margin-left: 4px&quot;&gt;  &lt;span style=&quot;color:#b9e7ff&quot;&gt;owner&lt;/span&gt;: &lt;span style=&quot;color:#c0ff00&quot;&gt;User&lt;/span&gt; &lt;/p&gt;&lt;p style=&quot;margin: 0px ; margin-left: 4px&quot;&gt;  &lt;span style=&quot;color:#b9e7ff&quot;&gt;number&lt;/span&gt;: &lt;span style=&quot;color:#00ffc4&quot;&gt;string&lt;/span&gt; &lt;/p&gt;&lt;p style=&quot;margin: 0px ; margin-left: 4px&quot;&gt;  &lt;span style=&quot;color:#b9e7ff&quot;&gt;expiry&lt;/span&gt;: &lt;span style=&quot;color:#00ffc4&quot;&gt;date&lt;/span&gt; &lt;/p&gt;&lt;p style=&quot;margin: 0px ; margin-left: 4px&quot;&gt;  &lt;span style=&quot;color:#b9e7ff&quot;&gt;cvc&lt;/span&gt;: &lt;span style=&quot;color:#00ffc4&quot;&gt;string&lt;/span&gt; &lt;/p&gt;&lt;p style=&quot;margin: 0px ; margin-left: 4px&quot;&gt;  &lt;span style=&quot;color:#b9e7ff&quot;&gt;type&lt;/span&gt;: &lt;span style=&quot;color:#c0ff00&quot;&gt;CreditCardType&lt;/span&gt; &lt;/p&gt;&lt;p style=&quot;margin: 0px ; margin-left: 4px&quot;&gt;  &lt;span style=&quot;color:#b9e7ff&quot;&gt;is_active&lt;/span&gt;: &lt;span style=&quot;color:#00ffc4&quot;&gt;boolean&lt;/span&gt; &lt;/p&gt;&lt;p style=&quot;margin: 0px ; margin-left: 4px&quot;&gt;  &lt;span style=&quot;color:#b9e7ff&quot;&gt;created_at&lt;/span&gt;: &lt;span style=&quot;color:#00ffc4&quot;&gt;timestamp&lt;/span&gt; &lt;br&gt;&lt;/p&gt;&lt;hr size=&quot;1&quot;&gt;&lt;p style=&quot;margin: 0px ; margin-left: 4px&quot;&gt; &lt;span style=&quot;color:#5ea6e8&quot;&gt;+&lt;/span&gt;  &lt;span style=&quot;color:#ff904d&quot;&gt;renderDetails&lt;/span&gt;(): &lt;span style=&quot;color:#00ffc4&quot;&gt;string&lt;/span&gt; &lt;/p&gt;" style="verticalAlign=top;align=left;overflow=fill;fontSize=12;fontFamily=Lucida Console;html=1;" parent="WIyWlLk6GJQsqaUBKTNV-1" vertex="1">
                    <mxGeometry x="805" y="414" width="200" height="195" as="geometry"/>
                </mxCell>
                <mxCell id="x0zs3fpVoMOHUoJGgKyW-31" value="&lt;font face=&quot;Helvetica&quot;&gt;&amp;lt;&amp;lt;extends&amp;gt;&amp;gt;&lt;/font&gt;" style="endArrow=block;endSize=16;endFill=0;html=1;rounded=1;entryX=0.5;entryY=1;entryDx=0;entryDy=0;exitX=0.5;exitY=0;exitDx=0;exitDy=0;edgeStyle=elbowEdgeStyle;elbow=vertical;fontFamily=Lucida Console;" parent="WIyWlLk6GJQsqaUBKTNV-1" source="x0zs3fpVoMOHUoJGgKyW-13" target="x0zs3fpVoMOHUoJGgKyW-29" edge="1">
                    <mxGeometry width="160" relative="1" as="geometry">
                        <mxPoint x="526" y="-758.5" as="sourcePoint"/>
                        <mxPoint x="686" y="-758.5" as="targetPoint"/>
                        <Array as="points">
                            <mxPoint x="980" y="-718.5"/>
                        </Array>
                    </mxGeometry>
                </mxCell>
                <mxCell id="19" style="edgeStyle=orthogonalEdgeStyle;rounded=1;html=1;dashed=1;fontFamily=Helvetica;startArrow=classic;startFill=1;endArrow=none;endFill=0;entryX=1.001;entryY=0.807;entryDx=0;entryDy=0;exitX=0.885;exitY=-0.004;exitDx=0;exitDy=0;exitPerimeter=0;entryPerimeter=0;" parent="WIyWlLk6GJQsqaUBKTNV-1" source="x0zs3fpVoMOHUoJGgKyW-32" target="x0zs3fpVoMOHUoJGgKyW-29" edge="1">
                    <mxGeometry relative="1" as="geometry">
                        <mxPoint x="1278" y="-953" as="targetPoint"/>
                        <mxPoint x="1130" y="-432" as="sourcePoint"/>
                    </mxGeometry>
                </mxCell>
                <mxCell id="23" value="&amp;lt;&amp;lt;uses&amp;gt;&amp;gt;" style="edgeLabel;html=1;align=center;verticalAlign=middle;resizable=0;points=[];fontFamily=Helvetica;" parent="19" vertex="1" connectable="0">
                    <mxGeometry x="-0.0676" y="-1" relative="1" as="geometry">
                        <mxPoint as="offset"/>
                    </mxGeometry>
                </mxCell>
                <mxCell id="21" style="edgeStyle=orthogonalEdgeStyle;rounded=1;html=1;exitX=0.25;exitY=1;exitDx=0;exitDy=0;entryX=0.75;entryY=0;entryDx=0;entryDy=0;dashed=1;fontFamily=Helvetica;startArrow=classic;startFill=1;endArrow=none;endFill=0;" parent="WIyWlLk6GJQsqaUBKTNV-1" source="x0zs3fpVoMOHUoJGgKyW-32" target="x0zs3fpVoMOHUoJGgKyW-14" edge="1">
                    <mxGeometry relative="1" as="geometry">
                        <Array as="points">
                            <mxPoint x="1068" y="40"/>
                            <mxPoint x="953" y="40"/>
                        </Array>
                    </mxGeometry>
                </mxCell>
                <mxCell id="24" value="&amp;lt;&amp;lt;uses&amp;gt;&amp;gt;" style="edgeLabel;html=1;align=center;verticalAlign=middle;resizable=0;points=[];fontFamily=Helvetica;" parent="21" vertex="1" connectable="0">
                    <mxGeometry x="0.4175" y="-1" relative="1" as="geometry">
                        <mxPoint x="-2" y="78" as="offset"/>
                    </mxGeometry>
                </mxCell>
                <mxCell id="22" style="edgeStyle=orthogonalEdgeStyle;rounded=1;html=1;exitX=0;exitY=0.5;exitDx=0;exitDy=0;entryX=0.999;entryY=0.56;entryDx=0;entryDy=0;entryPerimeter=0;dashed=1;fontFamily=Helvetica;startArrow=classic;startFill=1;endArrow=none;endFill=0;" parent="WIyWlLk6GJQsqaUBKTNV-1" source="x0zs3fpVoMOHUoJGgKyW-32" target="x0zs3fpVoMOHUoJGgKyW-34" edge="1">
                    <mxGeometry relative="1" as="geometry"/>
                </mxCell>
                <mxCell id="25" value="&amp;lt;&amp;lt;uses&amp;gt;&amp;gt;" style="edgeLabel;html=1;align=center;verticalAlign=middle;resizable=0;points=[];fontFamily=Helvetica;" parent="22" vertex="1" connectable="0">
                    <mxGeometry x="0.1697" y="1" relative="1" as="geometry">
                        <mxPoint x="3" y="-1" as="offset"/>
                    </mxGeometry>
                </mxCell>
                <mxCell id="x0zs3fpVoMOHUoJGgKyW-32" value="&lt;p style=&quot;margin: 0px ; margin-top: 4px ; text-align: center&quot;&gt;&lt;b&gt;&lt;span style=&quot;font-family:Helvetica&quot;&gt;Address&lt;/span&gt;&lt;/b&gt;&lt;br&gt;&lt;/p&gt;&lt;hr size=&quot;1&quot;&gt;&lt;p style=&quot;margin: 0px ; margin-left: 4px&quot;&gt;  &lt;span style=&quot;color:#b9e7ff&quot;&gt;id&lt;/span&gt;: &lt;span style=&quot;color:#00ffc4&quot;&gt;int&lt;/span&gt; &lt;br&gt;&lt;/p&gt;&lt;p style=&quot;margin: 0px ; margin-left: 4px&quot;&gt;  &lt;span style=&quot;color:#b9e7ff&quot;&gt;line1&lt;/span&gt;: &lt;span style=&quot;color:#00ffc4&quot;&gt;string&lt;/span&gt; &lt;/p&gt;&lt;p style=&quot;margin: 0px ; margin-left: 4px&quot;&gt;  &lt;span style=&quot;color:#b9e7ff&quot;&gt;line2&lt;/span&gt;: &lt;span style=&quot;color:#00ffc4&quot;&gt;string&lt;/span&gt; &lt;/p&gt;&lt;p style=&quot;margin: 0px ; margin-left: 4px&quot;&gt;  &lt;span style=&quot;color:#b9e7ff&quot;&gt;city&lt;/span&gt;: &lt;span style=&quot;color:#00ffc4&quot;&gt;string&lt;/span&gt; &lt;/p&gt;&lt;p style=&quot;margin: 0px ; margin-left: 4px&quot;&gt;  &lt;span style=&quot;color:#b9e7ff&quot;&gt;zipcode&lt;/span&gt;: &lt;span style=&quot;color:#00ffc4&quot;&gt;string&lt;/span&gt; &lt;/p&gt;&lt;p style=&quot;margin: 0px ; margin-left: 4px&quot;&gt;  &lt;span style=&quot;color:#b9e7ff&quot;&gt;country&lt;/span&gt;: &lt;span style=&quot;color:#00ffc4&quot;&gt;string&lt;/span&gt; &lt;br&gt;&lt;/p&gt;&lt;p style=&quot;margin: 0px ; margin-left: 4px&quot;&gt;  &lt;span style=&quot;color:#b9e7ff&quot;&gt;created_at&lt;/span&gt;: &lt;span style=&quot;color:#00ffc4&quot;&gt;timestamp&lt;/span&gt; &lt;br&gt;&lt;/p&gt;&lt;hr size=&quot;1&quot;&gt;&lt;p style=&quot;margin: 0px ; margin-left: 4px&quot;&gt; &lt;span style=&quot;color:#5ea6e8&quot;&gt;+&lt;/span&gt;  &lt;span style=&quot;color:#ff904d&quot;&gt;renderDetails&lt;/span&gt;(): &lt;span style=&quot;color:#00ffc4&quot;&gt;string&lt;/span&gt; &lt;/p&gt;" style="verticalAlign=top;align=left;overflow=fill;fontSize=12;fontFamily=Lucida Console;html=1;" parent="WIyWlLk6GJQsqaUBKTNV-1" vertex="1">
                    <mxGeometry x="1019" y="-370" width="194.75" height="166" as="geometry"/>
                </mxCell>
                <mxCell id="49" style="edgeStyle=orthogonalEdgeStyle;rounded=1;html=1;exitX=0.75;exitY=1;exitDx=0;exitDy=0;entryX=0;entryY=0.25;entryDx=0;entryDy=0;dashed=1;fontFamily=Helvetica;startArrow=classic;startFill=1;endArrow=none;endFill=0;" parent="WIyWlLk6GJQsqaUBKTNV-1" source="x0zs3fpVoMOHUoJGgKyW-34" target="0" edge="1">
                    <mxGeometry relative="1" as="geometry"/>
                </mxCell>
                <mxCell id="50" value="&amp;lt;&amp;lt;instantiate&amp;gt;&amp;gt;" style="edgeLabel;html=1;align=center;verticalAlign=middle;resizable=0;points=[];fontFamily=Helvetica;" parent="49" vertex="1" connectable="0">
                    <mxGeometry x="0.2234" y="1" relative="1" as="geometry">
                        <mxPoint x="26" y="-1" as="offset"/>
                    </mxGeometry>
                </mxCell>
                <mxCell id="x0zs3fpVoMOHUoJGgKyW-34" value="&lt;p style=&quot;margin: 0px ; margin-top: 4px ; text-align: center&quot;&gt;&lt;b&gt;&lt;span style=&quot;font-family:Helvetica&quot;&gt;Branch&lt;/span&gt;&lt;/b&gt;&lt;br&gt;&lt;/p&gt;&lt;hr size=&quot;1&quot;&gt;&lt;p style=&quot;margin: 0px ; margin-left: 4px&quot;&gt;  &lt;span style=&quot;color:#b9e7ff&quot;&gt;id&lt;/span&gt;: &lt;span style=&quot;color:#00ffc4&quot;&gt;int&lt;/span&gt; &lt;br&gt;  &lt;span style=&quot;color:#b9e7ff&quot;&gt;address&lt;/span&gt;: &lt;span style=&quot;color:#c0ff00&quot;&gt;Address&lt;/span&gt; &lt;br&gt;  &lt;span style=&quot;color:#b9e7ff&quot;&gt;name&lt;/span&gt;: &lt;span style=&quot;color:#00ffc4&quot;&gt;string&lt;/span&gt; &lt;br&gt;&lt;/p&gt;&lt;p style=&quot;margin: 0px ; margin-left: 4px&quot;&gt;  &lt;span style=&quot;color:#b9e7ff&quot;&gt;created_at&lt;/span&gt;: &lt;span style=&quot;color:#00ffc4&quot;&gt;timestamp&lt;/span&gt; &lt;/p&gt;&lt;hr size=&quot;1&quot;&gt;&lt;p style=&quot;margin: 0px ; margin-left: 4px&quot;&gt; &lt;span style=&quot;color:#5ea6e8&quot;&gt;+&lt;/span&gt;  &lt;span style=&quot;color:#ff904d&quot;&gt;renderDetails&lt;/span&gt;(): &lt;span style=&quot;color:#00ffc4&quot;&gt;string&lt;/span&gt; &lt;br&gt; &lt;span style=&quot;color:#5ea6e8&quot;&gt;+&lt;/span&gt;  &lt;span style=&quot;color:#ff904d&quot;&gt;getEmployees&lt;/span&gt;(): &lt;span style=&quot;color:#c0ff00&quot;&gt;List&lt;/span&gt;&amp;lt;&lt;span style=&quot;color:#c0ff00&quot;&gt;User&lt;/span&gt;&amp;gt; &lt;/p&gt;" style="verticalAlign=top;align=left;overflow=fill;fontSize=12;fontFamily=Lucida Console;html=1;" parent="WIyWlLk6GJQsqaUBKTNV-1" vertex="1">
                    <mxGeometry x="733.0000000000001" y="-365" width="212.37" height="140" as="geometry"/>
                </mxCell>
                <mxCell id="13" style="edgeStyle=elbowEdgeStyle;rounded=1;elbow=vertical;html=1;exitX=0.5;exitY=1;exitDx=0;exitDy=0;entryX=0.5;entryY=0;entryDx=0;entryDy=0;dashed=1;fontFamily=Helvetica;startArrow=none;startFill=0;endArrow=classic;endFill=1;" parent="WIyWlLk6GJQsqaUBKTNV-1" source="x0zs3fpVoMOHUoJGgKyW-36" target="x0zs3fpVoMOHUoJGgKyW-0" edge="1">
                    <mxGeometry relative="1" as="geometry"/>
                </mxCell>
                <mxCell id="14" value="&amp;lt;&amp;lt;uses&amp;gt;&amp;gt;" style="edgeLabel;html=1;align=center;verticalAlign=middle;resizable=0;points=[];fontFamily=Helvetica;horizontal=1;" parent="13" vertex="1" connectable="0">
                    <mxGeometry x="-0.586" relative="1" as="geometry">
                        <mxPoint y="18" as="offset"/>
                    </mxGeometry>
                </mxCell>
                <mxCell id="32" style="edgeStyle=orthogonalEdgeStyle;rounded=1;html=1;exitX=0;exitY=0.25;exitDx=0;exitDy=0;dashed=1;fontFamily=Helvetica;startArrow=classic;startFill=1;endArrow=classic;endFill=1;entryX=0.231;entryY=1;entryDx=0;entryDy=0;entryPerimeter=0;" parent="WIyWlLk6GJQsqaUBKTNV-1" source="x0zs3fpVoMOHUoJGgKyW-36" target="x0zs3fpVoMOHUoJGgKyW-28" edge="1">
                    <mxGeometry relative="1" as="geometry">
                        <mxPoint x="294" y="-731" as="targetPoint"/>
                    </mxGeometry>
                </mxCell>
                <mxCell id="33" value="&amp;lt;&amp;lt;uses&amp;gt;&amp;gt;" style="edgeLabel;html=1;align=center;verticalAlign=middle;resizable=0;points=[];fontFamily=Helvetica;" parent="32" vertex="1" connectable="0">
                    <mxGeometry x="-0.5352" y="2" relative="1" as="geometry">
                        <mxPoint x="33" y="-2" as="offset"/>
                    </mxGeometry>
                </mxCell>
                <mxCell id="44" style="edgeStyle=orthogonalEdgeStyle;rounded=1;html=1;entryX=0.75;entryY=0;entryDx=0;entryDy=0;dashed=1;fontFamily=Helvetica;startArrow=none;startFill=0;endArrow=classic;endFill=1;" parent="WIyWlLk6GJQsqaUBKTNV-1" source="x0zs3fpVoMOHUoJGgKyW-36" target="x0zs3fpVoMOHUoJGgKyW-29" edge="1">
                    <mxGeometry relative="1" as="geometry">
                        <Array as="points">
                            <mxPoint x="144" y="-261"/>
                            <mxPoint x="144" y="-1407"/>
                            <mxPoint x="987" y="-1407"/>
                        </Array>
                    </mxGeometry>
                </mxCell>
                <mxCell id="45" value="&amp;lt;&amp;lt;uses&amp;gt;&amp;gt;" style="edgeLabel;html=1;align=center;verticalAlign=middle;resizable=0;points=[];fontFamily=Helvetica;" parent="44" vertex="1" connectable="0">
                    <mxGeometry x="-0.8956" y="4" relative="1" as="geometry">
                        <mxPoint x="7" y="-4" as="offset"/>
                    </mxGeometry>
                </mxCell>
                <mxCell id="46" style="edgeStyle=orthogonalEdgeStyle;rounded=1;html=1;exitX=0;exitY=0.75;exitDx=0;exitDy=0;dashed=1;fontFamily=Helvetica;startArrow=classic;startFill=1;endArrow=none;endFill=0;entryX=0.88;entryY=-0.002;entryDx=0;entryDy=0;entryPerimeter=0;" parent="WIyWlLk6GJQsqaUBKTNV-1" source="x0zs3fpVoMOHUoJGgKyW-36" target="x0zs3fpVoMOHUoJGgKyW-29" edge="1">
                    <mxGeometry relative="1" as="geometry">
                        <mxPoint x="1080" y="-1117" as="targetPoint"/>
                        <Array as="points">
                            <mxPoint x="105" y="-209"/>
                            <mxPoint x="105" y="-1442"/>
                            <mxPoint x="1026" y="-1442"/>
                        </Array>
                    </mxGeometry>
                </mxCell>
                <mxCell id="47" value="&amp;lt;&amp;lt;instantiate&amp;gt;&amp;gt;" style="edgeLabel;html=1;align=center;verticalAlign=middle;resizable=0;points=[];fontFamily=Helvetica;" parent="46" vertex="1" connectable="0">
                    <mxGeometry x="-0.9005" y="1" relative="1" as="geometry">
                        <mxPoint x="19" as="offset"/>
                    </mxGeometry>
                </mxCell>
                <mxCell id="x0zs3fpVoMOHUoJGgKyW-36" value="&lt;p style=&quot;margin: 0px ; margin-top: 4px ; text-align: center&quot;&gt;&lt;b&gt;&lt;span style=&quot;font-family: &amp;#34;helvetica&amp;#34;&quot;&gt;Operation&lt;/span&gt;&lt;/b&gt;&lt;br&gt;&lt;/p&gt;&lt;hr size=&quot;1&quot;&gt;&lt;p style=&quot;margin: 0px ; margin-left: 4px&quot;&gt;&lt;span style=&quot;color:#5ea6e8&quot;&gt;@template&lt;/span&gt; &lt;span style=&quot;color:#c0ff00&quot;&gt;T&lt;/span&gt;&lt;/p&gt;&lt;hr size=&quot;1&quot;&gt;&lt;p style=&quot;margin: 0px ; margin-left: 4px&quot;&gt;  &lt;span style=&quot;color:#b9e7ff&quot;&gt;id&lt;/span&gt;: &lt;span style=&quot;color:#00ffc4&quot;&gt;int&lt;/span&gt; &lt;br&gt;&lt;/p&gt;&lt;p style=&quot;margin: 0px ; margin-left: 4px&quot;&gt;  &lt;span style=&quot;color:#b9e7ff&quot;&gt;account&lt;/span&gt;: &lt;span style=&quot;color:#c0ff00&quot;&gt;Account&lt;/span&gt; &lt;br&gt;&lt;/p&gt;&lt;p style=&quot;margin: 0px ; margin-left: 4px&quot;&gt;  &lt;span style=&quot;color:#b9e7ff&quot;&gt;action&lt;/span&gt;: &lt;span style=&quot;color:#c0ff00&quot;&gt;T&lt;/span&gt; &lt;br&gt;&lt;/p&gt;&lt;p style=&quot;margin: 0px ; margin-left: 4px&quot;&gt;  &lt;span style=&quot;color:#b9e7ff&quot;&gt;applican&lt;/span&gt;: &lt;span style=&quot;color:#c0ff00&quot;&gt;User&lt;/span&gt; &lt;br&gt;&lt;/p&gt;&lt;p style=&quot;margin: 0px ; margin-left: 4px&quot;&gt;  &lt;span style=&quot;color:#b9e7ff&quot;&gt;employee&lt;/span&gt;: &lt;span style=&quot;color:#c0ff00&quot;&gt;Employee&lt;/span&gt;? &lt;br&gt;&lt;/p&gt;&lt;p style=&quot;margin: 0px ; margin-left: 4px&quot;&gt;  &lt;span style=&quot;color:#b9e7ff&quot;&gt;action_type&lt;/span&gt;: &lt;span style=&quot;color:#c0ff00&quot;&gt;ActionType&lt;/span&gt; &lt;/p&gt;&lt;p style=&quot;margin: 0px ; margin-left: 4px&quot;&gt;  &lt;span style=&quot;color:#b9e7ff&quot;&gt;permission&lt;/span&gt;: &lt;span style=&quot;color:#00ffc4&quot;&gt;long&lt;/span&gt; &lt;br&gt;&lt;/p&gt;&lt;p style=&quot;margin: 0px ; margin-left: 4px&quot;&gt;  &lt;span style=&quot;color:#b9e7ff&quot;&gt;created_at&lt;/span&gt;: &lt;span style=&quot;color:#00ffc4&quot;&gt;timestamp&lt;/span&gt; &lt;br&gt;&lt;/p&gt;&lt;hr size=&quot;1&quot;&gt;&lt;p style=&quot;margin: 0px ; margin-left: 4px&quot;&gt; &lt;span style=&quot;color:#5ea6e8&quot;&gt;+&lt;/span&gt;  &lt;span style=&quot;color:#ff904d&quot;&gt;renderDetails&lt;/span&gt;(): &lt;span style=&quot;color:#00ffc4&quot;&gt;string&lt;/span&gt; &lt;/p&gt;" style="verticalAlign=top;align=left;overflow=fill;fontSize=12;fontFamily=Lucida Console;html=1;" parent="WIyWlLk6GJQsqaUBKTNV-1" vertex="1">
                    <mxGeometry x="450" y="-365" width="200" height="208" as="geometry"/>
                </mxCell>
                <mxCell id="38" style="edgeStyle=orthogonalEdgeStyle;rounded=1;html=1;exitX=0;exitY=0.25;exitDx=0;exitDy=0;entryX=0.25;entryY=0;entryDx=0;entryDy=0;dashed=1;fontFamily=Helvetica;startArrow=classic;startFill=1;endArrow=classic;endFill=1;" parent="WIyWlLk6GJQsqaUBKTNV-1" source="x0zs3fpVoMOHUoJGgKyW-37" target="x0zs3fpVoMOHUoJGgKyW-28" edge="1">
                    <mxGeometry relative="1" as="geometry"/>
                </mxCell>
                <mxCell id="39" value="&amp;lt;&amp;lt;uses&amp;gt;&amp;gt;" style="edgeLabel;html=1;align=center;verticalAlign=middle;resizable=0;points=[];fontFamily=Helvetica;" parent="38" vertex="1" connectable="0">
                    <mxGeometry x="-0.2221" y="-4" relative="1" as="geometry">
                        <mxPoint y="3" as="offset"/>
                    </mxGeometry>
                </mxCell>
                <mxCell id="40" style="edgeStyle=orthogonalEdgeStyle;rounded=1;html=1;exitX=0;exitY=0.5;exitDx=0;exitDy=0;entryX=0.5;entryY=0;entryDx=0;entryDy=0;dashed=1;fontFamily=Helvetica;startArrow=classic;startFill=1;endArrow=none;endFill=0;" parent="WIyWlLk6GJQsqaUBKTNV-1" source="x0zs3fpVoMOHUoJGgKyW-37" edge="1">
                    <mxGeometry relative="1" as="geometry">
                        <mxPoint x="644" y="-1115" as="sourcePoint"/>
                        <mxPoint x="415" y="-1064" as="targetPoint"/>
                    </mxGeometry>
                </mxCell>
                <mxCell id="41" value="&amp;lt;&amp;lt;instantiate&amp;gt;&amp;gt;" style="edgeLabel;html=1;align=center;verticalAlign=middle;resizable=0;points=[];fontFamily=Helvetica;" parent="40" vertex="1" connectable="0">
                    <mxGeometry x="0.069" y="1" relative="1" as="geometry">
                        <mxPoint x="79" y="-1" as="offset"/>
                    </mxGeometry>
                </mxCell>
                <mxCell id="x0zs3fpVoMOHUoJGgKyW-37" value="&lt;p style=&quot;margin: 0px ; margin-top: 4px ; text-align: center&quot;&gt;&lt;b&gt;&lt;span style=&quot;font-family:Helvetica&quot;&gt;Disposition&lt;/span&gt;&lt;/b&gt;&lt;/p&gt;&lt;hr size=&quot;1&quot;&gt;&lt;p style=&quot;margin: 0px ; margin-left: 4px&quot;&gt;  &lt;span style=&quot;color:#b9e7ff&quot;&gt;id&lt;/span&gt;: &lt;span style=&quot;color:#00ffc4&quot;&gt;int&lt;/span&gt; &lt;br&gt;&lt;/p&gt;&lt;p style=&quot;margin: 0px ; margin-left: 4px&quot;&gt;  &lt;span style=&quot;color:#b9e7ff&quot;&gt;account&lt;/span&gt;: &lt;span style=&quot;color:#c0ff00&quot;&gt;Account&lt;/span&gt; &lt;br&gt;&lt;/p&gt;&lt;p style=&quot;margin: 0px ; margin-left: 4px&quot;&gt;  &lt;span style=&quot;color:#b9e7ff&quot;&gt;disponent&lt;/span&gt;: &lt;span style=&quot;color:#c0ff00&quot;&gt;User&lt;/span&gt; &lt;br&gt;&lt;/p&gt;&lt;p style=&quot;margin: 0px ; margin-left: 4px&quot;&gt;  &lt;span style=&quot;color:#b9e7ff&quot;&gt;withdraw_limit&lt;/span&gt;: &lt;span style=&quot;color:#00ffc4&quot;&gt;double&lt;/span&gt; &lt;br&gt;&lt;/p&gt;&lt;p style=&quot;margin: 0px ; margin-left: 4px&quot;&gt;  &lt;span style=&quot;color:#b9e7ff&quot;&gt;daily_limit&lt;/span&gt;: &lt;span style=&quot;color:#00ffc4&quot;&gt;double&lt;/span&gt; &lt;/p&gt;&lt;p style=&quot;margin: 0px ; margin-left: 4px&quot;&gt;  &lt;span style=&quot;color:#b9e7ff&quot;&gt;permissions&lt;/span&gt;: &lt;span style=&quot;color:#00ffc4&quot;&gt;long&lt;/span&gt; &lt;span&gt;&lt;br&gt;&lt;/span&gt;&lt;/p&gt;&lt;p style=&quot;margin: 0px ; margin-left: 4px&quot;&gt;&lt;span&gt;  &lt;span style=&quot;color:#b9e7ff&quot;&gt;created_at&lt;/span&gt;: &lt;span style=&quot;color:#00ffc4&quot;&gt;timestamp&lt;/span&gt; &lt;/span&gt;&lt;/p&gt;&lt;hr size=&quot;1&quot;&gt;&lt;p style=&quot;margin: 0px ; margin-left: 4px&quot;&gt; &lt;span style=&quot;color:#5ea6e8&quot;&gt;+&lt;/span&gt;  &lt;span style=&quot;color:#ff904d&quot;&gt;renderDetails&lt;/span&gt;(): &lt;span style=&quot;color:#00ffc4&quot;&gt;string&lt;/span&gt; &lt;/p&gt;&lt;p style=&quot;margin: 0px ; margin-left: 4px&quot;&gt; &lt;span style=&quot;color:#5ea6e8&quot;&gt;+&lt;/span&gt;  &lt;span style=&quot;color:#ff904d&quot;&gt;cancel&lt;/span&gt;(): &lt;span style=&quot;color:#00ffc4&quot;&gt;boolean&lt;/span&gt; &lt;/p&gt;" style="verticalAlign=top;align=left;overflow=fill;fontSize=12;fontFamily=Lucida Console;html=1;" parent="WIyWlLk6GJQsqaUBKTNV-1" vertex="1">
                    <mxGeometry x="649.9999999999999" y="-1349" width="194.75" height="180" as="geometry"/>
                </mxCell>
                <mxCell id="3" style="edgeStyle=elbowEdgeStyle;elbow=vertical;html=1;entryX=0.5;entryY=0;entryDx=0;entryDy=0;dashed=1;" parent="WIyWlLk6GJQsqaUBKTNV-1" source="0" target="x0zs3fpVoMOHUoJGgKyW-27" edge="1">
                    <mxGeometry relative="1" as="geometry"/>
                </mxCell>
                <mxCell id="4" value="&amp;lt;&amp;lt;instantiate&amp;gt;&amp;gt;" style="edgeLabel;html=1;align=center;verticalAlign=middle;resizable=0;points=[];" parent="3" vertex="1" connectable="0">
                    <mxGeometry x="-0.2852" y="2" relative="1" as="geometry">
                        <mxPoint x="-2" y="10" as="offset"/>
                    </mxGeometry>
                </mxCell>
                <mxCell id="52" style="edgeStyle=orthogonalEdgeStyle;rounded=1;html=1;exitX=0;exitY=0.5;exitDx=0;exitDy=0;entryX=0.341;entryY=1.013;entryDx=0;entryDy=0;dashed=1;fontFamily=Helvetica;startArrow=none;startFill=0;endArrow=classic;endFill=1;entryPerimeter=0;" parent="WIyWlLk6GJQsqaUBKTNV-1" source="0" target="1" edge="1">
                    <mxGeometry relative="1" as="geometry"/>
                </mxCell>
                <mxCell id="53" value="&amp;lt;&amp;lt;instantiate&amp;gt;&amp;gt;" style="edgeLabel;html=1;align=center;verticalAlign=middle;resizable=0;points=[];fontFamily=Helvetica;" parent="52" vertex="1" connectable="0">
                    <mxGeometry x="-0.6516" y="1" relative="1" as="geometry">
                        <mxPoint x="38" y="-1" as="offset"/>
                    </mxGeometry>
                </mxCell>
                <mxCell id="62" style="edgeStyle=elbowEdgeStyle;rounded=1;html=1;entryX=0.912;entryY=0.992;entryDx=0;entryDy=0;elbow=vertical;dashed=1;entryPerimeter=0;exitX=-0.001;exitY=0.102;exitDx=0;exitDy=0;exitPerimeter=0;" edge="1" parent="WIyWlLk6GJQsqaUBKTNV-1" source="0" target="x0zs3fpVoMOHUoJGgKyW-34">
                    <mxGeometry relative="1" as="geometry">
                        <mxPoint x="976" y="-220" as="sourcePoint"/>
                        <Array as="points">
                            <mxPoint x="1024" y="-127"/>
                        </Array>
                    </mxGeometry>
                </mxCell>
                <mxCell id="63" value="&amp;lt;&amp;lt;uses&amp;gt;&amp;gt;" style="edgeLabel;html=1;align=center;verticalAlign=middle;resizable=0;points=[];" vertex="1" connectable="0" parent="62">
                    <mxGeometry x="-0.2622" y="-1" relative="1" as="geometry">
                        <mxPoint x="-2" y="1" as="offset"/>
                    </mxGeometry>
                </mxCell>
                <mxCell id="64" style="edgeStyle=elbowEdgeStyle;rounded=1;elbow=vertical;html=1;exitX=0.75;exitY=1;exitDx=0;exitDy=0;entryX=0.915;entryY=0.015;entryDx=0;entryDy=0;entryPerimeter=0;dashed=1;" edge="1" parent="WIyWlLk6GJQsqaUBKTNV-1" source="0" target="x0zs3fpVoMOHUoJGgKyW-27">
                    <mxGeometry relative="1" as="geometry"/>
                </mxCell>
                <mxCell id="65" value="&amp;lt;&amp;lt;uses&amp;gt;&amp;gt;" style="edgeLabel;html=1;align=center;verticalAlign=middle;resizable=0;points=[];" vertex="1" connectable="0" parent="64">
                    <mxGeometry x="-0.216" y="1" relative="1" as="geometry">
                        <mxPoint as="offset"/>
                    </mxGeometry>
                </mxCell>
                <mxCell id="66" style="edgeStyle=elbowEdgeStyle;rounded=1;html=1;exitX=0.149;exitY=1.013;exitDx=0;exitDy=0;dashed=1;entryX=1.01;entryY=0.362;entryDx=0;entryDy=0;entryPerimeter=0;exitPerimeter=0;" edge="1" parent="WIyWlLk6GJQsqaUBKTNV-1" source="0" target="x0zs3fpVoMOHUoJGgKyW-30">
                    <mxGeometry relative="1" as="geometry">
                        <mxPoint x="1170.7619047619046" y="471.8254162016369" as="targetPoint"/>
                        <Array as="points">
                            <mxPoint x="1154" y="285"/>
                        </Array>
                    </mxGeometry>
                </mxCell>
                <mxCell id="67" value="&amp;lt;&amp;lt;uses&amp;gt;&amp;gt;" style="edgeLabel;html=1;align=center;verticalAlign=middle;resizable=0;points=[];" vertex="1" connectable="0" parent="66">
                    <mxGeometry x="-0.8676" y="2" relative="1" as="geometry">
                        <mxPoint as="offset"/>
                    </mxGeometry>
                </mxCell>
                <mxCell id="68" style="edgeStyle=elbowEdgeStyle;rounded=1;html=1;exitX=0.68;exitY=-0.007;exitDx=0;exitDy=0;entryX=1.005;entryY=0.432;entryDx=0;entryDy=0;dashed=1;exitPerimeter=0;entryPerimeter=0;" edge="1" parent="WIyWlLk6GJQsqaUBKTNV-1" source="0" target="x0zs3fpVoMOHUoJGgKyW-29">
                    <mxGeometry relative="1" as="geometry">
                        <Array as="points">
                            <mxPoint x="1325" y="-227"/>
                            <mxPoint x="1392" y="-531"/>
                        </Array>
                    </mxGeometry>
                </mxCell>
                <mxCell id="69" value="&amp;lt;&amp;lt;uses&amp;gt;&amp;gt;" style="edgeLabel;html=1;align=center;verticalAlign=middle;resizable=0;points=[];" vertex="1" connectable="0" parent="68">
                    <mxGeometry x="-0.8261" y="-2" relative="1" as="geometry">
                        <mxPoint as="offset"/>
                    </mxGeometry>
                </mxCell>
                <mxCell id="70" style="edgeStyle=elbowEdgeStyle;rounded=1;html=1;exitX=0.785;exitY=-0.004;exitDx=0;exitDy=0;entryX=0.844;entryY=-0.004;entryDx=0;entryDy=0;dashed=1;exitPerimeter=0;entryPerimeter=0;" edge="1" parent="WIyWlLk6GJQsqaUBKTNV-1" source="0" target="x0zs3fpVoMOHUoJGgKyW-28">
                    <mxGeometry relative="1" as="geometry">
                        <Array as="points">
                            <mxPoint x="1084" y="-1106"/>
                            <mxPoint x="1051" y="-1096"/>
                            <mxPoint x="1359" y="-196"/>
                            <mxPoint x="1348" y="-597"/>
                        </Array>
                    </mxGeometry>
                </mxCell>
                <mxCell id="71" value="&amp;lt;&amp;lt;uses&amp;gt;&amp;gt;" style="edgeLabel;html=1;align=center;verticalAlign=middle;resizable=0;points=[];" vertex="1" connectable="0" parent="70">
                    <mxGeometry x="-0.8529" y="-2" relative="1" as="geometry">
                        <mxPoint as="offset"/>
                    </mxGeometry>
                </mxCell>
                <mxCell id="72" style="edgeStyle=elbowEdgeStyle;rounded=1;elbow=vertical;html=1;exitX=-0.002;exitY=0.68;exitDx=0;exitDy=0;entryX=0.25;entryY=1;entryDx=0;entryDy=0;dashed=1;exitPerimeter=0;" edge="1" parent="WIyWlLk6GJQsqaUBKTNV-1" source="0" target="1">
                    <mxGeometry relative="1" as="geometry">
                        <Array as="points">
                            <mxPoint x="895" y="-31"/>
                        </Array>
                    </mxGeometry>
                </mxCell>
                <mxCell id="73" value="&amp;lt;&amp;lt;uses&amp;gt;&amp;gt;" style="edgeLabel;html=1;align=center;verticalAlign=middle;resizable=0;points=[];" vertex="1" connectable="0" parent="72">
                    <mxGeometry x="-0.7117" y="3" relative="1" as="geometry">
                        <mxPoint x="21" y="-3" as="offset"/>
                    </mxGeometry>
                </mxCell>
                <mxCell id="0" value="&lt;p style=&quot;margin: 0px ; margin-top: 4px ; text-align: center&quot;&gt;&lt;b&gt;&lt;span style=&quot;font-family: &amp;quot;helvetica&amp;quot;&quot;&gt;Main&lt;/span&gt;&lt;/b&gt;&lt;br&gt;&lt;/p&gt;&lt;hr size=&quot;1&quot;&gt;&lt;p style=&quot;margin: 0px ; margin-left: 4px&quot;&gt;&lt;/p&gt;&lt;p style=&quot;margin: 0px ; margin-left: 4px&quot;&gt; &lt;span style=&quot;color:#5ea6e8&quot;&gt;+&lt;/span&gt;  &lt;span style=&quot;color:#ff904d&quot;&gt;getBranches&lt;/span&gt;(): &lt;span style=&quot;color:#c0ff00&quot;&gt;List&lt;/span&gt;&amp;lt;&lt;span style=&quot;color:#c0ff00&quot;&gt;Branch&lt;/span&gt;&amp;gt; &lt;/p&gt;&lt;p style=&quot;margin: 0px ; margin-left: 4px&quot;&gt; &lt;span style=&quot;color:#5ea6e8&quot;&gt;+&lt;/span&gt;  &lt;span style=&quot;color:#ff904d&quot;&gt;getServices&lt;/span&gt;(): &lt;span style=&quot;color:#c0ff00&quot;&gt;List&lt;/span&gt;&amp;lt;&lt;span style=&quot;color:#c0ff00&quot;&gt;Service&lt;/span&gt;&amp;gt; &lt;/p&gt;&lt;p style=&quot;margin: 0px ; margin-left: 4px&quot;&gt; &lt;span style=&quot;color:#5ea6e8&quot;&gt;+&lt;/span&gt;  &lt;span style=&quot;color:#ff904d&quot;&gt;getUsers&lt;/span&gt;(): &lt;span style=&quot;color:#c0ff00&quot;&gt;List&lt;/span&gt;&amp;lt;&lt;span style=&quot;color:#c0ff00&quot;&gt;User&lt;/span&gt;&amp;gt; &lt;/p&gt;&lt;p style=&quot;margin: 0px ; margin-left: 4px&quot;&gt; &lt;span style=&quot;color:#5ea6e8&quot;&gt;+&lt;/span&gt;  &lt;span style=&quot;color:#ff904d&quot;&gt;getAccounts&lt;/span&gt;(): &lt;span style=&quot;color:#c0ff00&quot;&gt;List&lt;/span&gt;&amp;lt;&lt;span style=&quot;color:#c0ff00&quot;&gt;Account&lt;/span&gt;&amp;gt; &lt;/p&gt;&lt;p style=&quot;margin: 0px ; margin-left: 4px&quot;&gt; &lt;span style=&quot;color:#5ea6e8&quot;&gt;+&lt;/span&gt;  &lt;span style=&quot;color:#ff904d&quot;&gt;getCreditCards&lt;/span&gt;(): &lt;span style=&quot;color:#c0ff00&quot;&gt;List&lt;/span&gt;&amp;lt;&lt;span style=&quot;color:#c0ff00&quot;&gt;CreditCard&lt;/span&gt;&amp;gt; &lt;/p&gt;&lt;p style=&quot;margin: 0px ; margin-left: 4px&quot;&gt; &lt;span style=&quot;color:#5ea6e8&quot;&gt;+&lt;/span&gt;  &lt;span style=&quot;color:#ff904d&quot;&gt;getIBUsers&lt;/span&gt;(): &lt;span style=&quot;color:#c0ff00&quot;&gt;List&lt;/span&gt;&amp;lt;&lt;span style=&quot;color:#c0ff00&quot;&gt;IBUser&lt;/span&gt;&amp;gt; &lt;/p&gt;&lt;p style=&quot;margin: 0px ; margin-left: 4px&quot;&gt; &lt;span style=&quot;color:#5ea6e8&quot;&gt;+&lt;/span&gt;  &lt;span style=&quot;color:#ff904d&quot;&gt;createBranch&lt;/span&gt;(&lt;span style=&quot;color:#b9e7ff&quot;&gt;branch&lt;/span&gt;: &lt;span style=&quot;color:#c0ff00&quot;&gt;Branch&lt;/span&gt;): &lt;span style=&quot;color:#00ffc4&quot;&gt;boolean&lt;/span&gt; &lt;/p&gt;&lt;p style=&quot;margin: 0px ; margin-left: 4px&quot;&gt; &lt;span style=&quot;color:#5ea6e8&quot;&gt;+&lt;/span&gt;  &lt;span style=&quot;color:#ff904d&quot;&gt;createEmployee&lt;/span&gt;(&lt;span style=&quot;color:#b9e7ff&quot;&gt;user&lt;/span&gt;: &lt;span style=&quot;color:#c0ff00&quot;&gt;Employee&lt;/span&gt;): &lt;span style=&quot;color:#00ffc4&quot;&gt;boolean&lt;/span&gt;&lt;/p&gt;&lt;p style=&quot;margin: 0px ; margin-left: 4px&quot;&gt;&lt;span style=&quot;color:#5ea6e8&quot;&gt;+ &lt;/span&gt;&lt;span style=&quot;color:#ff904d&quot;&gt;createService&lt;/span&gt;(&lt;span style=&quot;color:#b9e7ff&quot;&gt;service&lt;/span&gt;: &lt;span style=&quot;color:#c0ff00&quot;&gt;Service&lt;/span&gt;): &lt;span style=&quot;color:#00ffc4&quot;&gt;boolean&lt;/span&gt; &lt;/p&gt;" style="verticalAlign=top;align=left;overflow=fill;fontSize=12;fontFamily=Lucida Console;html=1;" parent="WIyWlLk6GJQsqaUBKTNV-1" vertex="1">
                    <mxGeometry x="1107" y="-144" width="321.25" height="166" as="geometry"/>
                </mxCell>
                <mxCell id="15" style="edgeStyle=elbowEdgeStyle;rounded=1;elbow=vertical;html=1;exitX=0.75;exitY=1;exitDx=0;exitDy=0;entryX=0.5;entryY=0;entryDx=0;entryDy=0;dashed=1;fontFamily=Helvetica;startArrow=none;startFill=0;endArrow=classic;endFill=1;" parent="WIyWlLk6GJQsqaUBKTNV-1" source="1" target="x0zs3fpVoMOHUoJGgKyW-34" edge="1">
                    <mxGeometry relative="1" as="geometry"/>
                </mxCell>
                <mxCell id="17" value="&amp;lt;&amp;lt;uses&amp;gt;&amp;gt;" style="edgeLabel;html=1;align=center;verticalAlign=middle;resizable=0;points=[];fontFamily=Helvetica;" parent="15" vertex="1" connectable="0">
                    <mxGeometry x="-0.4494" relative="1" as="geometry">
                        <mxPoint x="-1" y="17" as="offset"/>
                    </mxGeometry>
                </mxCell>
                <mxCell id="16" style="edgeStyle=elbowEdgeStyle;rounded=1;elbow=vertical;html=1;exitX=0.101;exitY=1.004;exitDx=0;exitDy=0;entryX=0.75;entryY=0;entryDx=0;entryDy=0;dashed=1;fontFamily=Helvetica;startArrow=classic;startFill=1;endArrow=none;endFill=0;exitPerimeter=0;" parent="WIyWlLk6GJQsqaUBKTNV-1" source="1" target="x0zs3fpVoMOHUoJGgKyW-36" edge="1">
                    <mxGeometry relative="1" as="geometry"/>
                </mxCell>
                <mxCell id="18" value="&amp;lt;&amp;lt;uses&amp;gt;&amp;gt;" style="edgeLabel;html=1;align=center;verticalAlign=middle;resizable=0;points=[];fontFamily=Helvetica;" parent="16" vertex="1" connectable="0">
                    <mxGeometry x="-0.7154" y="-2" relative="1" as="geometry">
                        <mxPoint x="-30" y="62" as="offset"/>
                    </mxGeometry>
                </mxCell>
                <mxCell id="1" value="&lt;p style=&quot;margin: 0px ; margin-top: 4px ; text-align: center&quot;&gt;&lt;b&gt;&lt;span style=&quot;font-family: &amp;#34;helvetica&amp;#34;&quot;&gt;Employee&lt;/span&gt;&lt;/b&gt;&lt;/p&gt;&lt;hr size=&quot;1&quot;&gt;&lt;p style=&quot;margin: 0px ; margin-left: 4px&quot;&gt;&lt;span&gt;  &lt;span style=&quot;color:#b9e7ff&quot;&gt;branch&lt;/span&gt;: &lt;span style=&quot;color:#c0ff00&quot;&gt;Branch&lt;/span&gt; &lt;/span&gt;&lt;/p&gt;&lt;hr size=&quot;1&quot;&gt;&lt;p style=&quot;margin: 0px ; margin-left: 4px&quot;&gt; &lt;span style=&quot;color:#5ea6e8&quot;&gt;+&lt;/span&gt;  &lt;span style=&quot;color:#ff904d&quot;&gt;renderDetails&lt;/span&gt;(): &lt;span style=&quot;color:#00ffc4&quot;&gt;string&lt;/span&gt; &lt;/p&gt;&lt;p style=&quot;margin: 0px ; margin-left: 4px&quot;&gt; &lt;span style=&quot;color:#5ea6e8&quot;&gt;+&lt;/span&gt;  &lt;span style=&quot;color:#ff904d&quot;&gt;createUser&lt;/span&gt;(&lt;span style=&quot;color:#b9e7ff&quot;&gt;user&lt;/span&gt;: &lt;span style=&quot;color:#c0ff00&quot;&gt;User&lt;/span&gt;): &lt;span style=&quot;color:#00ffc4&quot;&gt;boolean&lt;/span&gt; &lt;/p&gt;&lt;p style=&quot;margin: 0px ; margin-left: 4px&quot;&gt; &lt;span style=&quot;color:#5ea6e8&quot;&gt;+&lt;/span&gt;  &lt;span style=&quot;color:#ff904d&quot;&gt;createAccount&lt;/span&gt;(&lt;span style=&quot;color:#b9e7ff&quot;&gt;type&lt;/span&gt;: &lt;span style=&quot;color:#c0ff00&quot;&gt;AccountType&lt;/span&gt;): &lt;span style=&quot;color:#c0ff00&quot;&gt;Account&lt;/span&gt; &lt;/p&gt;&lt;p style=&quot;margin: 0px ; margin-left: 4px&quot;&gt; &lt;span style=&quot;color:#5ea6e8&quot;&gt;+&lt;/span&gt;  &lt;span style=&quot;color:#ff904d&quot;&gt;getUser&lt;/span&gt;(&lt;span style=&quot;color:#b9e7ff&quot;&gt;id&lt;/span&gt;: &lt;span style=&quot;color:#00ffc4&quot;&gt;int&lt;/span&gt;): &lt;span style=&quot;color:#c0ff00&quot;&gt;User&lt;/span&gt;? &lt;/p&gt;&lt;p style=&quot;margin: 0px ; margin-left: 4px&quot;&gt; &lt;span style=&quot;color:#5ea6e8&quot;&gt;+&lt;/span&gt;  &lt;span style=&quot;color:#ff904d&quot;&gt;getAccount&lt;/span&gt;(&lt;span style=&quot;color:#b9e7ff&quot;&gt;id&lt;/span&gt;: &lt;span style=&quot;color:#00ffc4&quot;&gt;int&lt;/span&gt;): &lt;span style=&quot;color:#c0ff00&quot;&gt;Account&lt;/span&gt;? &lt;/p&gt;&lt;p style=&quot;margin: 0px ; margin-left: 4px&quot;&gt;&lt;br&gt;&lt;/p&gt;" style="verticalAlign=top;align=left;overflow=fill;fontSize=12;fontFamily=Lucida Console;html=1;" parent="WIyWlLk6GJQsqaUBKTNV-1" vertex="1">
                    <mxGeometry x="600" y="-618" width="320" height="135" as="geometry"/>
                </mxCell>
                <mxCell id="2" value="&lt;font face=&quot;Helvetica&quot;&gt;&amp;lt;&amp;lt;extends&amp;gt;&amp;gt;&lt;/font&gt;" style="endArrow=block;endSize=16;endFill=0;html=1;rounded=1;entryX=0.5;entryY=1;entryDx=0;entryDy=0;exitX=0.5;exitY=0;exitDx=0;exitDy=0;edgeStyle=elbowEdgeStyle;elbow=vertical;fontFamily=Lucida Console;" parent="WIyWlLk6GJQsqaUBKTNV-1" source="1" target="x0zs3fpVoMOHUoJGgKyW-29" edge="1">
                    <mxGeometry width="160" relative="1" as="geometry">
                        <mxPoint x="995" y="-658.5" as="sourcePoint"/>
                        <mxPoint x="810" y="-728.5" as="targetPoint"/>
                        <Array as="points">
                            <mxPoint x="800" y="-718.5"/>
                        </Array>
                    </mxGeometry>
                </mxCell>
                <mxCell id="x0zs3fpVoMOHUoJGgKyW-19" value="&lt;font face=&quot;Helvetica&quot;&gt;&amp;lt;&amp;lt;extends&amp;gt;&amp;gt;&lt;/font&gt;" style="endArrow=block;endSize=16;endFill=0;html=1;rounded=1;entryX=0.5;entryY=1;entryDx=0;entryDy=0;exitX=0.5;exitY=0;exitDx=0;exitDy=0;fontFamily=Lucida Console;" parent="WIyWlLk6GJQsqaUBKTNV-1" source="x0zs3fpVoMOHUoJGgKyW-12" target="x0zs3fpVoMOHUoJGgKyW-0" edge="1">
                    <mxGeometry width="160" relative="1" as="geometry">
                        <mxPoint x="530" y="190" as="sourcePoint"/>
                        <mxPoint x="700" y="180" as="targetPoint"/>
                        <Array as="points">
                            <mxPoint x="669" y="120"/>
                            <mxPoint x="550" y="120"/>
                        </Array>
                    </mxGeometry>
                </mxCell>
                <mxCell id="SlQF-4_tPs5couRV_qtZ-61" value="1" style="endArrow=open;html=1;endSize=12;startArrow=none;startSize=14;startFill=1;edgeStyle=orthogonalEdgeStyle;align=left;verticalAlign=bottom;rounded=0;exitX=0;exitY=0.5;exitDx=0;exitDy=0;" parent="WIyWlLk6GJQsqaUBKTNV-1" source="SlQF-4_tPs5couRV_qtZ-63" edge="1">
                    <mxGeometry x="-1" y="3" relative="1" as="geometry">
                        <mxPoint x="594" y="-1056" as="sourcePoint"/>
                        <mxPoint x="640" y="-934" as="targetPoint"/>
                    </mxGeometry>
                </mxCell>
                <mxCell id="SlQF-4_tPs5couRV_qtZ-63" value="&lt;&lt;uses&gt;&gt;" style="text;strokeColor=none;fillColor=none;align=left;verticalAlign=top;spacingLeft=4;spacingRight=4;overflow=hidden;rotatable=0;points=[[0,0.5],[1,0.5]];portConstraint=eastwest;" parent="WIyWlLk6GJQsqaUBKTNV-1" vertex="1">
                    <mxGeometry x="666" y="-947" width="63" height="26" as="geometry"/>
                </mxCell>
                <mxCell id="SlQF-4_tPs5couRV_qtZ-64" value="" style="endArrow=none;html=1;endSize=12;startArrow=diamondThin;startSize=14;startFill=1;edgeStyle=orthogonalEdgeStyle;align=left;verticalAlign=bottom;rounded=0;exitX=0;exitY=0.5;exitDx=0;exitDy=0;" parent="WIyWlLk6GJQsqaUBKTNV-1" source="x0zs3fpVoMOHUoJGgKyW-29" target="SlQF-4_tPs5couRV_qtZ-63" edge="1">
                    <mxGeometry x="-1" y="3" relative="1" as="geometry">
                        <mxPoint x="762" y="-934" as="sourcePoint"/>
                        <mxPoint x="640" y="-920" as="targetPoint"/>
                    </mxGeometry>
                </mxCell>
                <mxCell id="SlQF-4_tPs5couRV_qtZ-65" value="1" style="endArrow=open;html=1;endSize=12;startArrow=diamondThin;startSize=14;startFill=1;edgeStyle=orthogonalEdgeStyle;align=left;verticalAlign=bottom;rounded=1;entryX=0.006;entryY=0.457;entryDx=0;entryDy=0;entryPerimeter=0;" parent="WIyWlLk6GJQsqaUBKTNV-1" source="x0zs3fpVoMOHUoJGgKyW-28" target="x0zs3fpVoMOHUoJGgKyW-30" edge="1">
                    <mxGeometry x="-1" y="3" relative="1" as="geometry">
                        <mxPoint x="339" y="-661" as="sourcePoint"/>
                        <mxPoint x="725" y="564" as="targetPoint"/>
                        <Array as="points">
                            <mxPoint x="28" y="-890"/>
                            <mxPoint x="28" y="503"/>
                        </Array>
                    </mxGeometry>
                </mxCell>
                <mxCell id="SlQF-4_tPs5couRV_qtZ-66" value="1" style="endArrow=open;html=1;endSize=12;startArrow=diamondThin;startSize=14;startFill=0;edgeStyle=orthogonalEdgeStyle;align=left;verticalAlign=bottom;entryX=1;entryY=0.5;entryDx=0;entryDy=0;exitX=0.45;exitY=0;exitDx=0;exitDy=0;exitPerimeter=0;rounded=1;" parent="WIyWlLk6GJQsqaUBKTNV-1" source="x0zs3fpVoMOHUoJGgKyW-29" target="x0zs3fpVoMOHUoJGgKyW-37" edge="1">
                    <mxGeometry x="-0.9699" y="18" relative="1" as="geometry">
                        <mxPoint x="799" y="-1112" as="sourcePoint"/>
                        <mxPoint x="959" y="-1112" as="targetPoint"/>
                        <mxPoint as="offset"/>
                    </mxGeometry>
                </mxCell>
                <mxCell id="SlQF-4_tPs5couRV_qtZ-67" value="1" style="endArrow=open;html=1;endSize=12;startArrow=diamondThin;startSize=14;startFill=1;edgeStyle=orthogonalEdgeStyle;align=left;verticalAlign=bottom;rounded=1;exitX=0.75;exitY=0;exitDx=0;exitDy=0;" parent="WIyWlLk6GJQsqaUBKTNV-1" source="x0zs3fpVoMOHUoJGgKyW-28" target="x0zs3fpVoMOHUoJGgKyW-27" edge="1">
                    <mxGeometry x="-0.9955" y="-7" relative="1" as="geometry">
                        <mxPoint x="588" y="-1090" as="sourcePoint"/>
                        <mxPoint x="645" y="-766" as="targetPoint"/>
                        <Array as="points">
                            <mxPoint x="528" y="-1138"/>
                            <mxPoint x="1503" y="-1138"/>
                            <mxPoint x="1503" y="165"/>
                        </Array>
                        <mxPoint as="offset"/>
                    </mxGeometry>
                </mxCell>
                <mxCell id="SlQF-4_tPs5couRV_qtZ-69" value="1" style="endArrow=open;html=1;endSize=12;startArrow=diamondThin;startSize=14;startFill=0;edgeStyle=orthogonalEdgeStyle;align=left;verticalAlign=bottom;rounded=1;exitX=0.529;exitY=1;exitDx=0;exitDy=0;exitPerimeter=0;" parent="WIyWlLk6GJQsqaUBKTNV-1" source="x0zs3fpVoMOHUoJGgKyW-28" target="x0zs3fpVoMOHUoJGgKyW-36" edge="1">
                    <mxGeometry x="-1" y="3" relative="1" as="geometry">
                        <mxPoint x="494" y="-634" as="sourcePoint"/>
                        <mxPoint x="654" y="-634" as="targetPoint"/>
                        <Array as="points">
                            <mxPoint x="428" y="-572"/>
                            <mxPoint x="546" y="-572"/>
                        </Array>
                    </mxGeometry>
                </mxCell>
                <mxCell id="SlQF-4_tPs5couRV_qtZ-72" value="1" style="endArrow=open;html=1;endSize=12;startArrow=diamondThin;startSize=14;startFill=1;edgeStyle=elbowEdgeStyle;align=left;verticalAlign=bottom;rounded=1;entryX=0.32;entryY=0.993;entryDx=0;entryDy=0;entryPerimeter=0;exitX=-0.002;exitY=0.844;exitDx=0;exitDy=0;exitPerimeter=0;elbow=vertical;" parent="WIyWlLk6GJQsqaUBKTNV-1" source="0" target="x0zs3fpVoMOHUoJGgKyW-34" edge="1">
                    <mxGeometry x="-0.9139" y="21" relative="1" as="geometry">
                        <mxPoint x="1098" y="-29" as="sourcePoint"/>
                        <mxPoint x="1082" y="-153" as="targetPoint"/>
                        <Array as="points">
                            <mxPoint x="953" y="-4"/>
                        </Array>
                        <mxPoint as="offset"/>
                    </mxGeometry>
                </mxCell>
                <mxCell id="SlQF-4_tPs5couRV_qtZ-75" value="1" style="endArrow=open;html=1;endSize=12;startArrow=diamondThin;startSize=14;startFill=1;edgeStyle=orthogonalEdgeStyle;align=left;verticalAlign=bottom;rounded=0;entryX=0.149;entryY=0.003;entryDx=0;entryDy=0;entryPerimeter=0;exitX=0.287;exitY=0.996;exitDx=0;exitDy=0;exitPerimeter=0;" parent="WIyWlLk6GJQsqaUBKTNV-1" source="0" target="x0zs3fpVoMOHUoJGgKyW-27" edge="1">
                    <mxGeometry x="-0.55" y="7" relative="1" as="geometry">
                        <mxPoint x="1065" y="55" as="sourcePoint"/>
                        <mxPoint x="1225" y="55" as="targetPoint"/>
                        <mxPoint as="offset"/>
                    </mxGeometry>
                </mxCell>
                <mxCell id="SlQF-4_tPs5couRV_qtZ-82" value="1" style="endArrow=open;html=1;endSize=12;startArrow=diamondThin;startSize=14;startFill=1;edgeStyle=elbowEdgeStyle;align=left;verticalAlign=bottom;rounded=1;exitX=0.57;exitY=-0.009;exitDx=0;exitDy=0;entryX=1;entryY=0.629;entryDx=0;entryDy=0;entryPerimeter=0;exitPerimeter=0;" parent="WIyWlLk6GJQsqaUBKTNV-1" source="0" target="x0zs3fpVoMOHUoJGgKyW-29" edge="1">
                    <mxGeometry x="-0.9869" y="-7" relative="1" as="geometry">
                        <mxPoint x="1236" y="-186" as="sourcePoint"/>
                        <mxPoint x="1216" y="-693" as="targetPoint"/>
                        <mxPoint as="offset"/>
                        <Array as="points">
                            <mxPoint x="1290" y="-277"/>
                            <mxPoint x="1348" y="-543"/>
                        </Array>
                    </mxGeometry>
                </mxCell>
                <mxCell id="SlQF-4_tPs5couRV_qtZ-84" value="1" style="endArrow=open;html=1;endSize=12;startArrow=diamondThin;startSize=14;startFill=0;edgeStyle=orthogonalEdgeStyle;align=left;verticalAlign=bottom;rounded=1;exitX=0.04;exitY=1;exitDx=0;exitDy=0;exitPerimeter=0;entryX=1.003;entryY=0.16;entryDx=0;entryDy=0;entryPerimeter=0;" parent="WIyWlLk6GJQsqaUBKTNV-1" source="0" target="x0zs3fpVoMOHUoJGgKyW-30" edge="1">
                    <mxGeometry x="-0.8948" y="-18" relative="1" as="geometry">
                        <mxPoint x="1138" y="86" as="sourcePoint"/>
                        <mxPoint x="1121" y="351" as="targetPoint"/>
                        <mxPoint as="offset"/>
                    </mxGeometry>
                </mxCell>
                <mxCell id="SlQF-4_tPs5couRV_qtZ-87" value="1" style="endArrow=open;html=1;endSize=12;startArrow=diamondThin;startSize=14;startFill=1;edgeStyle=orthogonalEdgeStyle;align=left;verticalAlign=bottom;rounded=1;exitX=0;exitY=0.379;exitDx=0;exitDy=0;exitPerimeter=0;entryX=0.094;entryY=1;entryDx=0;entryDy=0;entryPerimeter=0;" parent="WIyWlLk6GJQsqaUBKTNV-1" source="0" target="x0zs3fpVoMOHUoJGgKyW-28" edge="1">
                    <mxGeometry relative="1" as="geometry">
                        <mxPoint x="922" y="-95" as="sourcePoint"/>
                        <mxPoint x="328" y="-723" as="targetPoint"/>
                    </mxGeometry>
                </mxCell>
                <mxCell id="SlQF-4_tPs5couRV_qtZ-88" value="1" style="endArrow=open;html=1;endSize=12;startArrow=diamondThin;startSize=14;startFill=1;edgeStyle=elbowEdgeStyle;align=left;verticalAlign=bottom;rounded=1;entryX=1;entryY=0.5;entryDx=0;entryDy=0;" parent="WIyWlLk6GJQsqaUBKTNV-1" target="x0zs3fpVoMOHUoJGgKyW-13" edge="1">
                    <mxGeometry x="-0.9493" y="-8" relative="1" as="geometry">
                        <mxPoint x="1252" y="-146" as="sourcePoint"/>
                        <mxPoint x="943" y="-426" as="targetPoint"/>
                        <Array as="points">
                            <mxPoint x="1252" y="-327"/>
                            <mxPoint x="1304" y="-352"/>
                        </Array>
                        <mxPoint as="offset"/>
                    </mxGeometry>
                </mxCell>
            </root>
        </mxGraphModel>
    </diagram>
</mxfile>